<svg xmlns="http://www.w3.org/2000/svg" viewBox="0 0 55 55" enable-background="new 0 0 55 55"><g fill="#AB2C29"><path d="M45.77 7.61c2.56 1.64 4.36 3.79 4.65 5.53.16.97-.31 1.94-.8 2.78-.94 1.63-3.87 2.15-3.87 2.15l-4.74-2.93-1.85 3.1 2.36 1.44c-.37.72-2.87 1.53-3.51 1.73-.65.2-1.97.66-2.6 1.65s-15.06 22.9-15.85 24.31c-.8 1.4-2.01 4.33-2.85 5.63-1.13 1.75-3.03 1.46-3.94.89-.87-.55-1.58-1.84-.68-3.6.88-1.72 2.05-2.44 3.52-4.89 8.6-14.31 19.11-30.55 24.5-40.74 0-.01 3.86 1.8 5.66 2.95zM14.85 51.92l1.14-1.81c.24-.37.12-.87-.25-1.11-.37-.24-.87-.12-1.11.25l-1.14 1.81c-.24.37-.12.87.25 1.11.37.24.87.13 1.11-.25zM44.18 18.83l-.29.45 1.06.67-.57.91-1.06-.67-.38.6.45.29-.19.3-.45-.29-.19.3.45.29-.19.3-.45-.29-.19.31.45.29-.19.3-.45-.29-.19.3.45.29-.19.3-.45-.29-.19.3.45.29-.19.3-.45-.29-.19.3.45.29-.19.3-.45-.29-.19.3.45.29-.2.31-.45-.29-.19.3.45.29-.19.3-.45-.29-.19.3.45.29-.19.3-.45-.29-.19.3.45.29-.19.3-.45-.29-.19.3.45.29-.19.3-.45-.29-.19.3.45.29-.19.3-.45-.29-.19.3.45.29-.19.3-.45-.29-.19.3.45.29-.19.3-.45-.29-.19.3.45.29-.19.3-.45-.29-.05.08c-.5.79-1.55 1.03-2.34.53S34 28.6 34.5 27.81l.05-.08-.45-.29.19-.3.45.29.19-.3-.45-.29.19-.3.45.29.19-.3-.45-.29.19-.3.45.29.19-.3-.45-.29.19-.3.45.29.19-.3-.45-.29.19-.3.45.29.19-.3-.45-.3.19-.3.45.29.19-.3-.45-.29.19-.3.45.29.19-.3-.45-.29.19-.3.45.29.19-.3-.45-.29.19-.3.45.29.19-.3-.45-.29.19-.3.46.27.19-.3-.45-.29.19-.3.45.29 1.91-3.02-1.06-.67.57-.91 1.06.67.29-.45-1.06-.67.57-.91 1.07.68c.54-.61 1.47-.76 2.18-.31.4.25.65.64.75 1.06.08.34.05.71-.09 1.04l1.07.68-.57.91-1.06-.67zM49.52 11.09c-.68-.82-2.38-2.63-3.2-3.11.25-.3.44-.6.63-.91.29-.45.12-1.19-.33-1.48l-.3-.19-.19.3-.3-.19.19-.3-.3-.19-.19.3-.3-.19.19-.3-.3-.19-.19.3-.3-.19.19-.3-.3-.19-.19.3-.3-.19.19-.3-.3-.19-.19.3-.32-.18.19-.3-.3-.2-.19.3-.3-.19.19-.3-.3-.19-.19.3-.3-.19.19-.3-.3-.19-.19.3-.3-.19.19-.3-.3-.19-.19.3-.3-.19.19-.3c-.3-.19-.87-.97.21-1.34 3.1-1.07 7.39.66 9 2.62.98 1.19 1.64 3.25 1.15 4.53-.33.85-1.41 2.38-2.04 3.11z"/></g><g fill="#0033A0"><path d="M14.89 4.82c5.39 10.19 15.9 26.43 24.5 40.74 1.47 2.45 2.64 3.18 3.52 4.89.9 1.76.18 3.05-.68 3.6-.91.57-2.81.86-3.94-.89-.84-1.29-2.05-4.22-2.85-5.63s-15.23-23.3-15.86-24.29-1.95-1.45-2.6-1.65-3.15-1.01-3.51-1.73l2.36-1.44-1.85-3.1-4.73 2.93s-2.93-.52-3.87-2.15c-.49-.85-.97-1.81-.8-2.78.29-1.74 2.1-3.9 4.65-5.53 1.8-1.15 5.66-2.97 5.66-2.97zm26.37 47.53c.37-.24.49-.73.25-1.11l-1.14-1.81c-.24-.37-.73-.49-1.11-.25-.37.24-.49.73-.25 1.11l1.14 1.81c.24.38.74.49 1.11.25zM10.82 19.01l.29.45-1.06.67.57.91 1.06-.67.38.6-.45.29.19.3.45-.29.19.3-.45.29.19.3.45-.29.19.3-.45.29.19.3.45-.29.19.3-.45.29.19.3.45-.29.19.3-.45.29.19.3.45-.29.19.3-.45.29.19.3.45-.29.19.3-.45.29.19.3.45-.29.19.3-.45.29.19.3.45-.29.19.3-.45.29.19.3.45-.29.19.3-.45.29.19.3.45-.29.19.3-.45.29.19.3.45-.29.19.3-.44.33.19.3.45-.29.19.3-.45.29.19.3.45-.29.19.3-.45.29.19.3.45-.29.19.3-.45.29.19.3.45-.29.05.08c.5.79 1.55 1.03 2.34.53.79-.5 1.03-1.55.53-2.34l-.05-.08.45-.29-.19-.3-.45.29-.19-.3.45-.29-.19-.3-.45.29-.19-.3.45-.29-.19-.3-.45.29-.19-.3.45-.29-.19-.3-.45.29-.19-.3.45-.29-.19-.3-.45.29-.19-.3.45-.29-.19-.3-.45.29-.19-.3.45-.29-.19-.3-.45.29-.19-.3.45-.29-.19-.3-.45.29-.19-.3.45-.29-.19-.3-.45.29-.19-.3.45-.29-.19-.3-.45.29-.19-.3.45-.29-.19-.3-.45.29-1.91-3.02 1.06-.67-.57-.91-1.06.67-.29-.45 1.06-.67-.57-.91-1.07.68c-.54-.61-1.47-.76-2.18-.31-.4.25-.65.64-.75 1.06-.08.34-.05.71.09 1.04l-1.07.66.57.91 1.05-.67zM5.48 11.27c.68-.82 2.38-2.63 3.2-3.11-.25-.3-.44-.6-.63-.91-.29-.45-.12-1.19.33-1.47l.3-.19.19.3.3-.19-.19-.3.3-.19.19.3.3-.19-.19-.3.3-.19.19.3.3-.19-.19-.3.3-.19.19.3.3-.19-.19-.3.3-.19.19.3.3-.19-.19-.3.3-.19.19.3.3-.19-.17-.31.3-.19.19.3.3-.19-.19-.3.3-.19.19.3.3-.19-.19-.3.3-.19.19.3.3-.19-.19-.3c.3-.19.87-.97-.21-1.34-3.1-1.07-7.39.66-9 2.62-.97 1.19-1.63 3.25-1.15 4.53.33.85 1.41 2.38 2.04 3.11z"/></g></svg>