<svg xmlns="http://www.w3.org/2000/svg" viewBox="0 0 592.74 610.4"><title>24-hour</title><path fill="#fff" d="M75.147 48.347l8.555-6.815 66.418 83.37-8.555 6.814zM165.52 106.48l-34.03-68.2 29.25-14.6 5.16 10.33-18.98 9.48 9.28 18.6 13.87-6.92 5.16 10.33-13.87 6.92 9.29 18.6 18.97-9.47 5.16 10.33-29.26 14.6zM213.15 85.42l-11.19 2.59-17.14-74.27 16.06-3.7 22.75 50.93-2.31-55.65 15.44-3.57 17.14 74.26-11.19 2.59-10.77-46.67L233 80.84l-9.01 2.08-21.58-44.05 10.74 46.55zM264.38 76.21L265.68 0l32.69.55-.2 11.55-21.21-.36-.35 20.78 15.49.27-.19 11.55-15.5-.27-.35 20.78 21.21.37-.2 11.55-32.69-.56zM341.75 26.28q1.43-6.47-5-7.88L330 16.91l-5.23 23.81 6.77 1.49a6.26 6.26 0 0 0 5-.9 6.43 6.43 0 0 0 2.88-4.16zM339 6.88q9.38 2.06 12.64 8.19 2.86 5.36 1.09 13.43l-2.37 10.81a17.77 17.77 0 0 1-8.93 12l1.17 34.3L330.44 83l-.65-29.52-1-.22-6.48-1.42-6.16 28-11.22-2.47L321.29 3zM366.29 96.7a18.21 18.21 0 0 1-9.08-24.09l17.2-37.85a18.22 18.22 0 0 1 33.66 1.14 17.67 17.67 0 0 1-.52 13.92L404 57.73l-10.88-4.93 3.7-8.13a6.63 6.63 0 0 0-3.3-8.77 6.29 6.29 0 0 0-5-.16 6.46 6.46 0 0 0-3.68 3.47l-17.25 38a6.53 6.53 0 0 0 3.26 8.69 6.46 6.46 0 0 0 5.05.2 6.27 6.27 0 0 0 3.69-3.42L385.75 69l-5.82-2.64 4.78-10.51 16.66 7.56-11 24.24a17.42 17.42 0 0 1-10.19 9.52 17.63 17.63 0 0 1-13.87-.49"/><path fill="#fff" d="M391.74 108.52l44.98-61.53 26.4 19.3-6.82 9.32-17.12-12.51-12.27 16.77 12.51 9.15-6.82 9.32-12.51-9.14-12.27 16.78 17.13 12.52-6.82 9.32-26.39-19.3zM489.24 91.03l-27.62 45.75 37.88-34.47 7.74 8.49-56.37 51.31-8.31-9.13 25.46-44.54-36.09 32.86-7.74-8.5 56.37-51.31 8.68 9.54zM464.85 186.59a18.11 18.11 0 0 1 6.76-24.79l36.12-20.54a18.22 18.22 0 0 1 24.87 6.8 17.38 17.38 0 0 1 1.74 13.81 17.66 17.66 0 0 1-8.57 11l-7.56 4.29-5.9-10.32 7.76-4.41a6.61 6.61 0 0 0 2.48-9 6.27 6.27 0 0 0-4-3.07 6.46 6.46 0 0 0-5 .65l-36.22 20.6a6.35 6.35 0 0 0-3.09 4 6.28 6.28 0 0 0 .64 5 6.39 6.39 0 0 0 4 3.11 6.26 6.26 0 0 0 5-.61l9.14-5.19 5.9 10.32-9.24 5.26a18.18 18.18 0 0 1-24.79-6.77"/><path fill="#fff" d="M511.84 210.55l37.33-28.39 3.93 12.01-23.35 16.59 28.63-.47 3.95 12.07-46.91-.89-30.33 9.92-3.57-10.92 30.32-9.92zM485.554 262.848l105.864-12.686 1.302 10.863-105.864 12.687zM511.32 327.63a21.4 21.4 0 0 1-13.33-5 14.88 14.88 0 0 1-4.89-8.23 21.62 21.62 0 0 1-.45-6.43 18.06 18.06 0 0 1 4-10.95 18.7 18.7 0 0 1 7.8-5.39 30 30 0 0 1 10.93-1.83l.09 11q-6.69.32-9.86 2.91a5.87 5.87 0 0 0-2.43 4.6 7.13 7.13 0 0 0 3.33 6.24 9.28 9.28 0 0 0 5 1.47q4.74.3 9.68-3.71l10.29-9.58a43.66 43.66 0 0 1 10.41-7.44 23 23 0 0 1 10.85-1.87q10.38.66 15.28 8a17.36 17.36 0 0 1 2.54 10.88 19.43 19.43 0 0 1-3.4 10.32 15.79 15.79 0 0 1-6.29 5.11 22.05 22.05 0 0 1-9 2l-1.31-11.11a13.25 13.25 0 0 0 7.45-2.21 5.6 5.6 0 0 0 2.17-4.43 5.27 5.27 0 0 0-2.48-5 10.82 10.82 0 0 0-5.5-1.68q-5.21-.34-10.9 3.82a37.46 37.46 0 0 0-5.18 4.78q-3.58 3.79-5 5a38.93 38.93 0 0 1-8.78 6 31.55 31.55 0 0 1-3.7 1.53 20.83 20.83 0 0 1-7.38 1.24"/><path fill="#fff" d="M490.56 335.79l73.45 20.32-8.72 31.52-11.13-3.08 5.67-20.45-20.04-5.54-4.14 14.94-11.13-3.08 4.14-14.94-20.04-5.54-5.66 20.44-11.12-3.07 8.72-31.52zM519.35 423.38q5.9 3 8.89-2.84l3.14-6.17-21.71-11.08-3.15 6.18a6.25 6.25 0 0 0-.38 5 6.43 6.43 0 0 0 3.3 3.83zm19.47 2.22q-4.37 8.55-11.11 10.16-5.91 1.43-13.28-2.33l-9.85-5a17.8 17.8 0 0 1-9.39-11.68l-33.48-7.53 5.65-11.06 28.71 6.84.46-.92 3-5.9L474 385.1l5.22-10.24 67.84 34.6zM450.75 423.86l67.75 37.38-7.58 9.35-52.15-29.95 40.06 44.85-7.58 9.37-50.44-58.72 9.94-12.28zM415.766 460.146l8.63-7.583 50.264 57.196-8.63 7.582zM392.45 476.22a18.17 18.17 0 0 1 25.13 5.59l22.25 35.12a18.2 18.2 0 1 1-30.75 19.49l-4.65-7.34 10.06-6.37 4.78 7.54a6.63 6.63 0 0 0 9.14 2.05 6.3 6.3 0 0 0 2.89-4.13 6.44 6.44 0 0 0-.89-5L408.09 488a6.54 6.54 0 0 0-9.06-2 6.45 6.45 0 0 0-2.93 4.12 6.28 6.28 0 0 0 .84 5l5.63 8.89-10.06 6.37-5.69-9a18.16 18.16 0 0 1 5.62-25.08"/><path fill="#fff" d="M369.14 490.8l27 71.28-30.58 11.58-4.09-10.8 19.84-7.51-7.37-19.44-14.49 5.49-4.09-10.8 14.49-5.49-7.36-19.44-19.84 7.51-4.09-10.79 30.58-11.59zM341.82 604.35l-10.75 2.04-19.89-104.73 10.74-2.05 19.9 104.74zM257.34 610.4l-10.91-.86 8.35-106.27 10.9.85-8.34 106.28zM174.56 594.22l32.73-101.492 10.414 3.358-32.73 101.493zM110.593 562.862l55.437-91.684 9.41 5.69L120 568.55zM51.094 516.297l74.52-76.226 7.822 7.648-74.52 76.226zM-.166 448.6l92.004-53.732 5.514 9.44L5.348 458.04zM181.8 173.25q2.78-37.6 24.53-57.46 18.83-17.53 47.35-17.53 26.2 0 43.23 19.65T312 163.75a126.05 126.05 0 0 1-15.91 52.18q-7.58 13.94-34.18 48-7.24 9.3-21.58 28.94l-8 10.77q-7.75 10.57-11.8 16.69a15.4 15.4 0 0 0-2 3.8H297l-2.89 39.08h-127l2.71-36.62q.1-1.27 9.8-14.61 4.48-6.11 10.12-13.5l11.5-15q10-12.45 31.51-39.91 20.31-25.77 30.95-46.67 8.67-17.1 9.76-31.89.89-12-5.24-20.49-6.74-8.86-18.35-8.87-16.69 0-25.08 19.23a45.94 45.94 0 0 0-3.45 15.21l-.76 10.13h-39.29zM350.49 339.25l6.12-82.73-39.09 82.73zm-70.56 0l83-167.73h39.92l-12.44 167.73H416l-3 40.14h-25.56l-4.23 57h-39.92l4.22-57H277zM180.05 429.17l-2.44 32.97h-10.5l5.76-77.81h10.49l-2.44 33.04h12.67l2.44-33.04h10.5l-5.76 77.81h-10.5l2.44-32.97h-12.66zM236.86 401.72a6.44 6.44 0 0 0-1.39-4.75 5.05 5.05 0 0 0-4.09-2 6 6 0 0 0-4.41 2 7.33 7.33 0 0 0-2.13 4.75l-3.14 42.59a6.39 6.39 0 0 0 1.42 4.76 5.14 5.14 0 0 0 4.12 2 5.94 5.94 0 0 0 4.38-2 7.41 7.41 0 0 0 2.1-4.76zm-4.35-18.38a14 14 0 0 1 11.38 5.47 17.94 17.94 0 0 1 3.87 13.19l-3.14 42.48a20.49 20.49 0 0 1-5.85 13.19 16.49 16.49 0 0 1-12.16 5.43 14 14 0 0 1-11.35-5.46 18 18 0 0 1-3.85-13.16l3.15-42.48a20.51 20.51 0 0 1 5.85-13.19 16.44 16.44 0 0 1 12.1-5.44M269 463a14.05 14.05 0 0 1-11.38-5.4 17.81 17.81 0 0 1-3.86-13.1l4.46-60.17h10.27l-4.44 60a6.39 6.39 0 0 0 1.42 4.75 5.15 5.15 0 0 0 4.13 2 5.93 5.93 0 0 0 4.4-2 7.41 7.41 0 0 0 2.1-4.75l4.44-60h10.96l-4.45 60.17a20.19 20.19 0 0 1-5.87 13.16A16.65 16.65 0 0 1 269 463"/><path d="M322.27 403.09q.51-6.76-5.5-6.77h-6.33l-1.84 24.9h6.33a5.93 5.93 0 0 0 4.4-2 7.56 7.56 0 0 0 2.11-4.78zm-4.89-18.75q8.78 0 12.49 5.4 3.26 4.73 2.64 13.17l-.83 11.3a20.75 20.75 0 0 1-6.65 14l5.26 34h-11.36l-4.2-29.31h-7l-2.17 29.31h-10.5l5.76-77.8z" fill="#fff"/></svg>