<svg xmlns="http://www.w3.org/2000/svg" xmlns:xlink="http://www.w3.org/1999/xlink" viewBox="0 0 150 150"><defs><linearGradient id="a" x1="27.34" y1="15.85" x2="39.14" y2="87.37" gradientUnits="userSpaceOnUse"><stop offset="0" stop-color="#fff"/><stop offset="1"/></linearGradient><linearGradient id="f" x1="22.08" y1="16.77" x2="33.86" y2="88.22" xlink:href="#a"/><linearGradient id="g" x1="419.79" y1="15.85" x2="431.58" y2="87.37" gradientTransform="matrix(-1 0 0 1 543.01 0)" xlink:href="#a"/><linearGradient id="h" x1="414.52" y1="16.74" x2="426.31" y2="88.23" gradientTransform="matrix(-1 0 0 1 543.01 0)" xlink:href="#a"/><linearGradient id="b" x1="3.92" y1="95.47" x2="37.88" y2="95.47" gradientUnits="userSpaceOnUse"><stop offset=".15" stop-color="#fec00f"/><stop offset=".29" stop-color="#f5b211"/><stop offset=".76" stop-color="#da8916"/><stop offset="1" stop-color="#cf7918"/></linearGradient><linearGradient id="i" x1="111.26" y1="95.47" x2="145.22" y2="95.47" xlink:href="#b"/><linearGradient id="c" x1="40.93" y1="56.53" x2="97.4" y2="56.53" gradientUnits="userSpaceOnUse"><stop offset="0" stop-color="#fff"/><stop offset=".1" stop-color="#efefef"/><stop offset=".29" stop-color="#c5c5c5"/><stop offset=".55" stop-color="#818181"/><stop offset=".88" stop-color="#252525"/><stop offset="1"/></linearGradient><linearGradient id="j" x1="35.52" y1="56.53" x2="114.45" y2="56.53" gradientUnits="userSpaceOnUse"><stop offset="0" stop-color="#fff"/><stop offset="0" stop-color="#fdfdfd"/><stop offset=".05" stop-color="#cdcdcd"/><stop offset=".1" stop-color="#a3a3a3"/><stop offset=".15" stop-color="#7c7c7c"/><stop offset=".21" stop-color="#5a5a5a"/><stop offset=".27" stop-color="#3e3e3e"/><stop offset=".35" stop-color="#272727"/><stop offset=".43" stop-color="#151515"/><stop offset=".53" stop-color="#090909"/><stop offset=".67" stop-color="#020202"/><stop offset="1"/></linearGradient><linearGradient id="k" x1="74.99" y1="52.7" x2="74.99" y2="5.04" xlink:href="#c"/><linearGradient id="l" x1="74.87" y1="42.96" x2="74.87" y2="6.4" xlink:href="#c"/><linearGradient id="d" x1="36.49" y1="9.4" x2="74.51" y2="9.4" gradientUnits="userSpaceOnUse"><stop offset="0" stop-color="#fff687"/><stop offset=".46" stop-color="#feda49"/><stop offset=".82" stop-color="#fec71f"/><stop offset="1" stop-color="#fec00f"/></linearGradient><linearGradient id="m" x1="53.56" y1="48.27" x2="53.56" y2="100.77" xlink:href="#d"/><linearGradient id="e" x1="74.62" y1="74.86" x2="104.92" y2="74.86" gradientUnits="userSpaceOnUse"><stop offset="0" stop-color="#fff687"/><stop offset=".06" stop-color="#ffe868"/><stop offset=".14" stop-color="#ffdc4d"/><stop offset=".23" stop-color="#fed236"/><stop offset=".32" stop-color="#feca24"/><stop offset=".44" stop-color="#fec418"/><stop offset=".6" stop-color="#fec111"/><stop offset="1" stop-color="#fec00f"/></linearGradient><linearGradient id="n" x1="74.62" y1="39.4" x2="104.92" y2="39.4" xlink:href="#e"/><linearGradient id="o" x1="31.62" y1="97.95" x2="117.56" y2="97.95" gradientUnits="userSpaceOnUse"><stop offset="0" stop-color="#fff687"/><stop offset=".09" stop-color="#fff797"/><stop offset=".27" stop-color="#fffac1"/><stop offset=".5" stop-color="#fff"/><stop offset="1" stop-color="#fff687"/></linearGradient></defs><title>mc-university-logo</title><g style="isolation:isolate"><g><path d="M52.06 93.83S48.8 91.72 48 80.54c0 0 6.72 1.79 8.82 10.5s-4.76 2.79-4.76 2.79zM51.31 92.37S40.52 86.71 31.1 71.22s-4.34-40.54 2.68-61.17l-.78.15S25.49 30.75 24.57 49a48.2 48.2 0 0 0 26.08 45c17.15 8.88.66-1.63.66-1.63zM40.22 84.22c-.09-.46-1.47-5.32-.49-9.49a37.61 37.61 0 0 0 3.89 3.75c1.68 1.28 3.81 9.35-.22 9.14" fill="#dcddde"/><path d="M44.52 89.32s-5.39.2-7.62 3.65a6.62 6.62 0 0 1 2.84 1.55c1 1.09 6.8 2.25 8.4-2zM38.59 84s-3.76.38-6.38.87-5-2.9-7-5.08c0 0 5-3.16 9.42 0S38.59 84 38.59 84zM33.19 75.62s2.51-1.1 1.81-4.81a5.8 5.8 0 0 0-3.57-4.61s.43-.24-.74 2.05a5.59 5.59 0 0 0-.69 3.82zM29 70s-1.74-3.35-8.12-2.48a2.62 2.62 0 0 1 1.33 2c.29 1.54.25 6.5 8.86 4.74zM27.52 64.86A4.6 4.6 0 0 0 31 59.27c-.86-4.63-2.62-6.38-2.62-6.38a5.11 5.11 0 0 1-1.39 2.81c-1.22 1.18-2 2.13-2 2.13zM18.61 52.15s5.8 1.16 7.16 5.85c0 0 1.77 3.5-1 3.06s-5-1.3-5.76-4.36a11 11 0 0 1-.4-4.55zM25.66 51s5.75-.83 2.93-7.41a11 11 0 0 1-2.46 1.81c-.9.33-1 1.54-1 1.54zM24.83 48.68a6.75 6.75 0 0 0-1.68-2.16c-1.47-1.48-4.35-2.78-1.66-7.2a11.1 11.1 0 0 1 3.89 5.9zM26.11 42.21s6-.4 5-7.07c0 0 .17-.83-1-.06s-2.85 2.29-3.77 2.46zM26 36.33s2.43-6.28-2.2-9.25c0 0 .58 1.41-.15 2.18s-1.41 6.33 2.35 7.07zM27.71 27.63a7.15 7.15 0 0 1 3.5-1.77 10.32 10.32 0 0 0 .1 1.42c.12 1.09-.18 2-1.75 3A10.9 10.9 0 0 0 27 32.71zM27.93 26.23s-3-1.67-2.42-7.45c0 0 1.77.07 2 1.3a6.12 6.12 0 0 0 1.76 3c.22-.01-1.34 3.15-1.34 3.15zM30.1 21.2a4.2 4.2 0 0 0 3.47-4.08s-.19.27-1.3.32a5.91 5.91 0 0 0-2 .45zM31.47 16.07s-.24-2.59-1.32-3.67c0 0-.6-.21-.69 1s.45 3.27 1.16 3.22a.89.89 0 0 0 .85-.55zM32.47 12.85a14 14 0 0 1 2.54-1A2.06 2.06 0 0 1 34 14a2 2 0 0 1-2.14.08zM32.35 12.24s-2-1-.92-3.66a1.19 1.19 0 0 1 1 .92 6.79 6.79 0 0 0 .43 1.44z" fill="#dcddde"/><path d="M50.82 93.83s-3.27-2.11-4.07-13.29c0 0 6.72 1.79 8.82 10.5s-4.75 2.79-4.75 2.79zM50.07 92.37s-10.79-5.66-20.21-21.15-4.34-40.54 2.68-61.17l-.77.14S24.25 30.75 23.33 49a48.2 48.2 0 0 0 26.08 45c17.14 8.88.66-1.63.66-1.63zM39 84.22c-.09-.46-1.47-5.32-.49-9.49a37.6 37.6 0 0 0 3.89 3.75c1.68 1.28 3.81 9.35-.22 9.14" fill="#007949"/><path d="M43.28 89.32s-5.39.2-7.62 3.65a6.62 6.62 0 0 1 2.84 1.55c1 1.09 6.8 2.25 8.4-2zM37.35 84s-3.76.38-6.38.87-5-2.9-7-5.08c0 0 5-3.16 9.42 0S37.35 84 37.35 84zM32 75.62s2.51-1.11 1.82-4.81a5.8 5.8 0 0 0-3.57-4.61s.43-.24-.74 2.05a5.59 5.59 0 0 0-.73 3.81zM27.72 70s-1.72-3.33-8.13-2.46a2.62 2.62 0 0 1 1.33 2c.29 1.54.25 6.5 8.86 4.74zM26.28 64.86a4.6 4.6 0 0 0 3.43-5.59c-.86-4.63-2.62-6.38-2.62-6.38a5.11 5.11 0 0 1-1.39 2.81c-1.22 1.18-2 2.13-2 2.13zM17.37 52.15s5.8 1.16 7.16 5.85c0 0 1.77 3.5-1 3.06s-5-1.3-5.76-4.36a11 11 0 0 1-.4-4.55zM24.42 51s5.75-.83 2.93-7.41a11 11 0 0 1-2.45 1.81c-.9.33-1 1.54-1 1.54zM23.59 48.68a6.75 6.75 0 0 0-1.68-2.16c-1.47-1.48-4.35-2.78-1.66-7.2a11.1 11.1 0 0 1 3.89 5.9zM24.87 42.21s6-.4 5-7.07c0 0 .17-.83-1-.06s-2.87 2.29-3.76 2.46zM24.73 36.33s2.43-6.28-2.2-9.25c0 0 .58 1.41-.15 2.18s-1.38 6.33 2.35 7.07zM26.47 27.63A7.15 7.15 0 0 1 30 25.86a10.32 10.32 0 0 0 .1 1.42c.12 1.09-.18 2-1.75 3a10.9 10.9 0 0 0-2.59 2.4zM26.68 26.23s-3-1.67-2.42-7.45c0 0 1.77.07 2 1.3a6.12 6.12 0 0 0 1.76 3c.23-.01-1.34 3.15-1.34 3.15zM28.86 21.2a4.2 4.2 0 0 0 3.47-4.08s-.19.27-1.3.32a5.91 5.91 0 0 0-2 .45zM30.23 16.07s-.24-2.59-1.32-3.67c0 0-.6-.21-.69 1s.45 3.27 1.16 3.22a.89.89 0 0 0 .85-.55zM31.22 12.85a14 14 0 0 1 2.54-1 2.06 2.06 0 0 1-1 2.11 2 2 0 0 1-2.14.08zM31.11 12.24s-2-1-.92-3.66a1.19 1.19 0 0 1 1 .92 6.79 6.79 0 0 0 .43 1.44z" fill="#007949"/><g style="mix-blend-mode:multiply"><path d="M55.08 95.71c.83-.3 1.25-1.53.49-4.68-2.1-8.71-8.82-10.5-8.82-10.5.45 6.24 1.66 9.65 2.64 11.45a44.73 44.73 0 0 1-6.13-4.58c2.46-1.26.61-7.78-.89-8.93a37.61 37.61 0 0 1-3.89-3.75 20.13 20.13 0 0 0 .2 8.23 70.62 70.62 0 0 1-6.2-7.69c.69-.57 1.75-1.88 1.28-4.45a5.84 5.84 0 0 0-3.5-4.58c0 .1 0 .5-.8 2a8 8 0 0 0-.54 1.32 32.47 32.47 0 0 1-2.06-4.91 4.49 4.49 0 0 0 2.84-5.39c-.86-4.63-2.62-6.38-2.62-6.38a5.11 5.11 0 0 1-1.39 2.81l-.61.61c-.21-1.75-.32-3.55-.36-5.39 1.14-.28 5.06-1.68 2.63-7.35a11 11 0 0 1-2.45 1.85h-.08q.09-1.61.24-3.24c1-.14 5.68-1.1 4.79-7.05 0 0 .17-.83-1-.06a35.51 35.51 0 0 1-3.24 2.26q.41-2.8 1-5.63a10.38 10.38 0 0 1 1.71-1.4c1.57-1 1.87-1.94 1.75-3a10.32 10.32 0 0 1-.1-1.42 7.09 7.09 0 0 0-2.27.86q.66-2.8 1.43-5.58a4.12 4.12 0 0 0 3.22-4s-.19.27-1.3.32a5.58 5.58 0 0 0-.89.11q.48-1.63 1-3.23a2.28 2.28 0 0 0 1.58-.3 2.06 2.06 0 0 0 1-2.11 11.27 11.27 0 0 0-2.09.74q.43-1.31.86-2.59l-.77.14-.19.53a7.24 7.24 0 0 1-.34-1.23 1.19 1.19 0 0 0-1-.92c-1 2.46.61 3.49.88 3.64-.27.79-.6 1.81-1 3a5.81 5.81 0 0 0-1.19-2.8s-.6-.21-.69 1 .45 3.27 1.16 3.22a1.24 1.24 0 0 0 .3-.06l-.37 1.22-.26.1-.05.95c-.37 1.28-.77 2.67-1.16 4.15a7.19 7.19 0 0 1-1.57-2.91c-.23-1.23-2-1.3-2-1.3-.6 5.78 2.42 7.45 2.42 7.45s.32-.65.65-1.36q-.32 1.24-.63 2.54l-.24.22-.31 2.17c-.3 1.33-.59 2.69-.86 4.08.24-2.09 0-5-2.76-6.79 0 0 .58 1.41-.15 2.18s-1.38 6.29 2.35 7.03c0 0 .12-.3.25-.81-.51 2.76-.94 5.59-1.25 8.42a11.21 11.21 0 0 0-3.48-4.62c-2.69 4.41.18 5.71 1.66 7.2a10.57 10.57 0 0 1 1.45 1.73v.72a46.63 46.63 0 0 0 .17 6.93 11.07 11.07 0 0 0-6.12-3.75 11 11 0 0 0 .37 4.56c.73 3.06 3 3.92 5.76 4.36a2.25 2.25 0 0 0 .8 0 47.69 47.69 0 0 0 2.37 7.8c-1.17-.87-3.32-1.87-7.12-1.33a2.62 2.62 0 0 1 1.33 2c.28 1.51.26 6.3 8.36 4.83a48.38 48.38 0 0 0 3.07 4.85c-4.14-2.09-8.4.61-8.4.61 2 2.18 4.39 5.57 7 5.08 1.82-.34 4.19-.63 5.47-.77a48.7 48.7 0 0 0 5.88 5.28c-1.65.23-5 1-6.66 3.55a6.62 6.62 0 0 1 2.84 1.55c1 1.09 6.77 2.24 8.39-2 .82.49 1.66 1 2.52 1.42 9.96 5.18 8.61 3.83 5.69 1.77z" fill="url(#a)"/><path d="M30.2 66.21h.07-.07z" fill="url(#f)"/></g><path d="M98.51 93.83s3.27-2.11 4.07-13.29c0 0-6.72 1.79-8.82 10.5s4.75 2.79 4.75 2.79zM99.26 92.37s10.74-5.66 20.21-21.15 4.34-40.54-2.68-61.17l.77.14S125.08 30.75 126 49a48.2 48.2 0 0 1-26.08 45c-17.14 8.88-.66-1.63-.66-1.63zM110.35 84.22c.09-.46 1.47-5.32.49-9.49a37.62 37.62 0 0 1-3.89 3.75c-1.68 1.28-3.81 9.35.22 9.14" fill="#dcddde"/><path d="M106.05 89.32s5.39.2 7.62 3.65a6.62 6.62 0 0 0-2.84 1.55c-1 1.09-6.8 2.25-8.4-2zM112 84s3.76.38 6.38.87 5-2.9 7-5.08c0 0-5-3.16-9.42 0S112 84 112 84zM117.38 75.62s-2.51-1.11-1.82-4.81a5.8 5.8 0 0 1 3.57-4.61s-.43-.24.74 2.05a5.59 5.59 0 0 1 .73 3.81zM121.61 70s1.74-3.35 8.12-2.48a2.62 2.62 0 0 0-1.33 2c-.29 1.54-.25 6.5-8.86 4.74zM123 64.86a4.6 4.6 0 0 1-3.43-5.59c.86-4.63 2.62-6.38 2.62-6.38a5.1 5.1 0 0 0 1.39 2.81c1.22 1.18 2 2.13 2 2.13zM132 52.15s-5.8 1.16-7.15 5.85c0 0-1.77 3.5 1 3.06s5-1.3 5.76-4.36a10.94 10.94 0 0 0 .39-4.55zM124.91 51s-5.75-.83-2.93-7.41a11 11 0 0 0 2.46 1.81c.9.33 1 1.54 1 1.54zM125.74 48.68a6.74 6.74 0 0 1 1.68-2.16c1.47-1.48 4.35-2.78 1.66-7.2a11.1 11.1 0 0 0-3.89 5.9zM124.46 42.21s-6-.4-5-7.07c0 0-.16-.83 1-.06s2.85 2.29 3.77 2.46zM124.6 36.33s-2.43-6.28 2.2-9.25c0 0-.58 1.41.15 2.18s1.38 6.33-2.35 7.07zM122.86 27.63a7.15 7.15 0 0 0-3.5-1.77 10.24 10.24 0 0 1-.1 1.42c-.12 1.09.18 2 1.75 3a10.9 10.9 0 0 1 2.59 2.4zM122.65 26.23s3-1.67 2.42-7.45c0 0-1.77.07-2 1.3a6.12 6.12 0 0 1-1.76 3c-.23-.01 1.34 3.15 1.34 3.15zM120.47 21.2a4.2 4.2 0 0 1-3.47-4.08s.19.27 1.3.32a5.91 5.91 0 0 1 2 .45zM119.1 16.07s.24-2.59 1.32-3.67c0 0 .6-.21.69 1s-.45 3.27-1.16 3.22a.89.89 0 0 1-.85-.55zM118.11 12.85a14 14 0 0 0-2.54-1 2.06 2.06 0 0 0 1 2.11 2 2 0 0 0 2.14.08zM118.22 12.24s2-1 .92-3.66a1.19 1.19 0 0 0-1 .92 6.79 6.79 0 0 1-.43 1.44z" fill="#dcddde"/><path d="M99.75 93.83s3.26-2.11 4.07-13.29c0 0-6.72 1.79-8.82 10.5s4.75 2.79 4.75 2.79zM100.5 92.37s10.79-5.66 20.22-21.15 4.34-40.54-2.68-61.17l.77.14s7.52 20.56 8.44 38.77a48.2 48.2 0 0 1-26.08 45c-17.17 8.92-.67-1.59-.67-1.59zM111.6 84.22c.09-.46 1.47-5.32.49-9.49a37.6 37.6 0 0 1-3.89 3.75c-1.68 1.28-3.81 9.35.22 9.14" fill="#007949"/><path d="M107.29 89.32s5.39.2 7.62 3.65a6.62 6.62 0 0 0-2.84 1.55c-1 1.09-6.8 2.25-8.4-2zM113.22 84s3.76.38 6.39.87 5-2.9 7-5.08c0 0-5-3.16-9.42 0S113.22 84 113.22 84zM118.62 75.62s-2.51-1.11-1.82-4.81a5.8 5.8 0 0 1 3.57-4.61s-.43-.24.74 2.05a5.59 5.59 0 0 1 .73 3.81zM122.85 70s1.74-3.35 8.12-2.48a2.62 2.62 0 0 0-1.33 2c-.29 1.54-.25 6.5-8.86 4.74zM124.29 64.86a4.6 4.6 0 0 1-3.43-5.59c.86-4.63 2.62-6.38 2.62-6.38a5.11 5.11 0 0 0 1.39 2.81c1.22 1.18 2 2.13 2 2.13zM133.2 52.15s-5.8 1.16-7.2 5.85c0 0-1.77 3.5 1 3.06s5-1.3 5.76-4.36a11 11 0 0 0 .44-4.55zM126.15 51s-5.75-.83-2.93-7.41a11 11 0 0 0 2.46 1.81c.9.33 1 1.54 1 1.54zM127 48.68a6.75 6.75 0 0 1 1.68-2.16c1.47-1.48 4.35-2.78 1.66-7.2a11.1 11.1 0 0 0-3.89 5.9zM125.71 42.21s-6-.4-5-7.07c0 0-.17-.83 1-.06s2.85 2.29 3.77 2.46zM125.84 36.33s-2.43-6.28 2.2-9.25c0 0-.58 1.41.15 2.18s1.38 6.33-2.35 7.07zM124.11 27.63a7.15 7.15 0 0 0-3.5-1.77 10.41 10.41 0 0 1-.1 1.42c-.12 1.09.18 2 1.75 3a10.9 10.9 0 0 1 2.59 2.4zM123.89 26.23s3-1.67 2.42-7.45c0 0-1.77.07-2 1.3a6.12 6.12 0 0 1-1.76 3c-.23-.01 1.34 3.15 1.34 3.15zM121.71 21.2a4.2 4.2 0 0 1-3.47-4.08s.19.27 1.3.32a5.91 5.91 0 0 1 2 .45zM120.35 16.07s.24-2.59 1.32-3.67c0 0 .6-.21.69 1s-.45 3.27-1.16 3.22a.89.89 0 0 1-.85-.55zM119.35 12.85a14 14 0 0 0-2.54-1 2.06 2.06 0 0 0 1 2.11 2 2 0 0 0 2.14.08zM119.46 12.24s2-1 .92-3.66a1.19 1.19 0 0 0-1 .92 6.79 6.79 0 0 1-.43 1.44z" fill="#007949"/><g style="mix-blend-mode:multiply"><path d="M95.49 95.71c-.83-.3-1.25-1.53-.49-4.68 2.1-8.71 8.82-10.5 8.82-10.5-.45 6.24-1.66 9.65-2.64 11.45a44.75 44.75 0 0 0 6.13-4.58c-2.46-1.26-.61-7.78.89-8.93a37.58 37.58 0 0 0 3.89-3.75 20.12 20.12 0 0 1-.2 8.23 70.62 70.62 0 0 0 6.2-7.69c-.69-.57-1.75-1.88-1.28-4.45a5.84 5.84 0 0 1 3.5-4.58c0 .1 0 .5.8 2a8 8 0 0 1 .54 1.32 32.47 32.47 0 0 0 2.06-4.91 4.49 4.49 0 0 1-2.84-5.39c.86-4.63 2.62-6.38 2.62-6.38a5.11 5.11 0 0 0 1.39 2.81l.61.61c.21-1.75.32-3.55.36-5.39-1.14-.28-5.06-1.68-2.63-7.35a11 11 0 0 0 2.46 1.81h.08q-.09-1.61-.24-3.24c-1-.14-5.68-1.1-4.79-7.05 0 0-.17-.83 1-.06a35.49 35.49 0 0 0 3.24 2.26q-.41-2.8-1-5.63a10.37 10.37 0 0 0-1.71-1.4c-1.57-1-1.87-1.94-1.75-3a10.32 10.32 0 0 0 .1-1.42 7.08 7.08 0 0 1 2.27.86q-.66-2.8-1.43-5.58a4.12 4.12 0 0 1-3.22-4s.19.27 1.3.32a5.58 5.58 0 0 1 .89.11q-.48-1.63-1-3.23a2.28 2.28 0 0 1-1.58-.3 2.06 2.06 0 0 1-1-2.11 11.26 11.26 0 0 1 2.09.74q-.43-1.31-.86-2.59l.77.14.19.53a7.23 7.23 0 0 0 .34-1.23 1.19 1.19 0 0 1 1-.92c1 2.46-.61 3.49-.88 3.64.27.79.6 1.81 1 3a5.81 5.81 0 0 1 1.19-2.8s.6-.21.69 1-.45 3.27-1.16 3.22a1.23 1.23 0 0 1-.3-.06l.37 1.22.26.1.05.95c.37 1.28.77 2.67 1.16 4.15a7.18 7.18 0 0 0 1.57-2.91c.23-1.23 2-1.3 2-1.3.6 5.78-2.42 7.45-2.42 7.45s-.32-.65-.65-1.36q.32 1.24.63 2.54l.24.22.31 2.17c.3 1.33.59 2.69.86 4.08-.24-2.09 0-5 2.76-6.79 0 0-.58 1.41.15 2.18s1.38 6.32-2.35 7.07c0 0-.12-.3-.25-.81.51 2.76.94 5.59 1.25 8.42a11.21 11.21 0 0 1 3.48-4.62c2.69 4.41-.18 5.71-1.66 7.2a10.57 10.57 0 0 0-1.45 1.73v.72a46.6 46.6 0 0 1-.17 6.93 11.07 11.07 0 0 1 6.12-3.75 11 11 0 0 1-.37 4.56c-.73 3.06-3 3.92-5.76 4.36a2.25 2.25 0 0 1-.8 0 47.68 47.68 0 0 1-2.37 7.8C125 68 127.19 67 131 67.54a2.62 2.62 0 0 0-1.33 2c-.28 1.51-.26 6.3-8.36 4.83a48.38 48.38 0 0 1-3.07 4.85c4.14-2.09 8.4.61 8.4.61-2 2.18-4.39 5.57-7 5.08-1.82-.34-4.19-.63-5.47-.77a48.66 48.66 0 0 1-5.88 5.28c1.65.23 5 1 6.66 3.55a6.62 6.62 0 0 0-2.84 1.55c-1 1.09-6.77 2.24-8.39-2-.82.49-1.66 1-2.52 1.42-9.98 5.18-8.61 3.83-5.71 1.77z" fill="url(#g)"/><path d="M120.37 66.21h-.07.07z" fill="url(#h)"/></g><path d="M4.47 107.9h8.43l3.1 11.83h.21a25.11 25.11 0 0 1 .57-3l2.54-8.85h8.34l3.71 22.53h-7.93l-1.11-12.34h-.15a18.83 18.83 0 0 1-.54 2.24l-3.26 10.1h-4.77l-2.93-9.53a15.43 15.43 0 0 1-.51-2.81h-.26c-.06.9-.12 1.82-.21 2.72l-1 9.62H.82zM44.69 121.43a4.49 4.49 0 0 0-2.84-1.31 2.32 2.32 0 1 0-.15 4.63 5.14 5.14 0 0 0 3-1.22l-.34 6.47a12.82 12.82 0 0 1-3.88.75c-5.14 0-8.82-2.9-8.82-8.22a8.09 8.09 0 0 1 8.19-8.37 15.82 15.82 0 0 1 4.84.81zM46.36 107.9h15.15v6.16h-6.9v2.15h6.31v5.86h-6.31v2.21h7.14v6.16H46.36zM63.64 107.9h8.19v15.3h6.87v7.23H63.64zM80 107.9h9.89c5.08 0 9.38 2.15 9.38 7.83 0 3.41-1.31 4.84-4.36 5.86v.18a5.75 5.75 0 0 1 1.37 1.35l4.9 7.32h-9.39l-3.59-7.24H88v7.23h-8zm8 10h.57c1.34 0 2.69-.21 2.69-1.88s-1.23-1.94-2.63-1.94H88zM125.28 119.22c0 7.23-5.59 11.56-12.46 11.56s-12.46-4.33-12.46-11.56 5.62-11.69 12.46-11.69 12.46 4.61 12.46 11.69zm-16.68.12a4.22 4.22 0 1 0 8.43 0 4.22 4.22 0 1 0-8.43 0zM131.62 107.9l2.51 5.89h.24c.24-.72.45-1.43.75-2.12l1.61-3.77h9.2l-7.71 12.82v9.71h-8v-9.71l-7.86-12.82z" fill="#007949"/><path d="M7.83 135.12h.81V143a5 5 0 0 1-.86 3.47A4.62 4.62 0 0 1 4.33 148a4.62 4.62 0 0 1-3.45-1.5A5 5 0 0 1 0 143v-7.92h.83v7.68a5.18 5.18 0 0 0 .66 3.2 3.8 3.8 0 0 0 2.85 1.23A3.8 3.8 0 0 0 7.18 146a5.18 5.18 0 0 0 .66-3.2zM29.46 148.23L18.8 136.9v10.91H18v-12.86l10.65 11.25v-11.08h.81zM39.73 147.81h-.81v-12.7h.81zM52.5 146l3.76-10.85h.81l-4.61 13.12-4.56-13.12h.81zM66.09 135.87v4.61h5.12v.76h-5.12v5.81h5.25v.76h-6.06v-12.7h6.06v.76zM86.84 147.81h-.93l-4.14-6h-.4v6h-.81v-12.7h1.58a4.67 4.67 0 0 1 2.9.64 3.19 3.19 0 0 1 1.28 2.73c0 2.21-1.53 3.35-3.64 3.32zM82.39 141a3.17 3.17 0 0 0 2.22-.59 2.54 2.54 0 0 0 .89-2 2.42 2.42 0 0 0-1.35-2.29 5.42 5.42 0 0 0-2.27-.29h-.52V141zM101.39 137.2a2.9 2.9 0 0 0-2.58-1.5 2.39 2.39 0 0 0-2.39 2.42c0 1.33 1.26 1.89 2.29 2.37l2.43 1.26a2.77 2.77 0 0 1 1.45 2.53 4 4 0 0 1-7.71 1l.71-.32a3.23 3.23 0 0 0 3.06 2.29 3.09 3.09 0 0 0 3.13-3c0-1.43-1.47-2-2.56-2.58l-2.29-1.21a2.54 2.54 0 0 1-1.31-2.27 3.1 3.1 0 0 1 3.25-3.22 3.56 3.56 0 0 1 3.1 1.79zM112.22 147.81h-.81v-12.7h.81zM124.51 147.81h-.81v-11.94h-3.28v-.76h7.38v.76h-3.28zM134.7 135.12h.89l3.74 6.43 3.74-6.43h.93l-4.23 7.28v5.42h-.81v-5.42z" fill="#004f27"/><path d="M63.61 109.27a34.47 34.47 0 0 0 8.17 3.93v-4.61l-4.24-.74h-3.9zM106 109.33a20.19 20.19 0 0 1 4.24 2.21c1.11 1 1-.61 1-2a5.21 5.21 0 0 0-.25-1.9 11.87 11.87 0 0 0-4.99 1.69zM80 113a91.68 91.68 0 0 0 7.68-5.16H80z" fill="#231f20" opacity=".25" style="mix-blend-mode:multiply"/><path d="M37.88 84.4s-18.62-.74-33.65 12.08c0 0-.83.92.18.92a39.39 39.39 0 0 1 9.22.18s-2.4 5-3.78 6.54-1.29 2-1.29 2-.09.46.55.37 5.25-3.41 19.54-7.65 5.62-7.56 5.62-7.56z" fill="url(#b)"/><path d="M111.26 84.4s18.62-.74 33.64 12.07c0 0 .83.92-.18.92a39.39 39.39 0 0 0-9.22.18s2.4 5 3.78 6.54 1.29 2 1.29 2 .09.46-.55.37-5.25-3.41-19.54-7.65-5.62-7.56-5.62-7.56z" fill="url(#i)"/><path d="M125 90.85a46.19 46.19 0 0 0-13.73-6.45s-.46 2.95-1.38 4a10.09 10.09 0 0 0-1.57 2.95s13.09 1.84 13.55 1.84 3.13-2.34 3.13-2.34z" fill="#4d2500"/><path d="M104 86.8s12 1 21 4.06a5.69 5.69 0 0 1-.83 3.59c-1.11 1.66-2.58 8.11-2.58 8.11s-.18 1.38-2.3.65-5.81-2.77-9.4-3.23S104 86.8 104 86.8z" fill="#fec00f"/><path d="M117.39 94.5s-2.9-3.46-12.86-6.77-3.53 4.41-3.53 4.41 14.91 7.52 16.39 2.36zM24.14 90.85a46.19 46.19 0 0 1 13.74-6.45s.46 2.95 1.38 4a10.09 10.09 0 0 1 1.57 2.95s-13.09 1.84-13.55 1.84-3.14-2.34-3.14-2.34z" fill="#4d2500"/><path d="M45.42 86.8s-12.33 1-21.27 4.06a5.69 5.69 0 0 0 .85 3.59c1.11 1.66 2.58 8.11 2.58 8.11s.18 1.38 2.3.65 5.81-2.77 9.4-3.23 6.14-13.18 6.14-13.18z" fill="#fec00f"/><path d="M31.75 94.5s2.9-3.46 12.86-6.77 3.56 4.42 3.56 4.42-14.95 7.51-16.42 2.35z" fill="#4d2500"/><path d="M113.22 14.49A44.18 44.18 0 0 1 74.51 2a44.27 44.27 0 0 1-38 12.59 87.69 87.69 0 0 0-4.27 27.3c0 15.58 4.67 54.28 42.62 68.18 38-13.89 42.66-52.6 42.66-68.18a88.12 88.12 0 0 0-4.3-27.4z" fill="#fec00f" stroke="#fec00f" stroke-width="1.84"/><path d="M110.43 18s2.12-.18 2.49-.28c0 0 18 66.76-38.13 90.73v-2.33L110.43 18" fill="#cf7918"/><path d="M74.9 106.66C38.32 92.53 35.52 53.58 35.52 41.89a88.65 88.65 0 0 1 3.32-23.79c1.11.1 2.51.19 4.13.19A47.92 47.92 0 0 0 74.59 6.4a47.51 47.51 0 0 0 31.33 11.88 49 49 0 0 0 5.18-.28 88.9 88.9 0 0 1 3.35 23.88c0 11.7-2.94 50.65-39.55 64.78z" fill="#007949"/><path d="M74.9 106.66C38.32 92.53 35.52 53.58 35.52 41.89a88.65 88.65 0 0 1 3.32-23.79c1.11.1 2.51.19 4.13.19A47.92 47.92 0 0 0 74.59 6.4a47.51 47.51 0 0 0 31.33 11.88 49 49 0 0 0 5.18-.28 88.9 88.9 0 0 1 3.35 23.88c0 11.7-2.94 50.65-39.55 64.78z" opacity=".7" fill="url(#c)" style="mix-blend-mode:multiply"/><path d="M74.91 106.66C38.32 92.52 35.52 53.58 35.52 41.89a88.65 88.65 0 0 1 3.32-23.79c1.11.1 2.51.19 4.13.19A47.92 47.92 0 0 0 74.59 6.4a47.51 47.51 0 0 0 31.33 11.88 49 49 0 0 0 5.18-.28 88.9 88.9 0 0 1 3.35 23.88c0 11.7-2.91 50.64-39.53 64.76z" opacity=".32" fill="url(#j)" style="mix-blend-mode:multiply"/><path d="M38.84 53.5c1.11.1 2.51.19 4.13.19a47.92 47.92 0 0 0 31.62-11.9 47.51 47.51 0 0 0 31.33 11.88 49 49 0 0 0 5.18-.28c.42 1.47 1 3.56 1.5 6.12a88.67 88.67 0 0 0 1.85-17.63A88.9 88.9 0 0 0 111.1 18a49 49 0 0 1-5.18.28A47.51 47.51 0 0 1 74.59 6.4 47.92 47.92 0 0 1 43 18.29c-1.62 0-3-.08-4.13-.19a88.65 88.65 0 0 0-3.32 23.78 89.43 89.43 0 0 0 1.83 17.69c.5-2.57 1.04-4.57 1.46-6.07z" opacity=".7" fill="url(#k)" style="mix-blend-mode:multiply"/><path d="M38.72 20.32c1.11.1 2.51.19 4.13.19a47.92 47.92 0 0 0 31.62-11.9 47.51 47.51 0 0 0 31.33 11.88 49 49 0 0 0 5.18-.28A89 89 0 0 1 114.33 43v-1.07A88.9 88.9 0 0 0 111 18a49 49 0 0 1-5.18.28A47.51 47.51 0 0 1 74.47 6.4a47.92 47.92 0 0 1-31.62 11.89c-1.62 0-3-.08-4.13-.19a88.65 88.65 0 0 0-3.32 23.79v1.07a88.78 88.78 0 0 1 3.32-22.64z" opacity=".32" fill="url(#l)" style="mix-blend-mode:multiply"/><path d="M80.4 104.17a54 54 0 0 1-5.62 2.49 67.41 67.41 0 0 1-6.41-2.91 46.67 46.67 0 0 1-4.26-2.48c-.27-.18 4.72-1.3 4.81-1.3l16.38 1.47s-2.3 1.38-4.9 2.73z" fill="#231f20" opacity=".5" style="mix-blend-mode:multiply"/><path d="M36.49 14.59l1.43 2S60.35 19.88 74.51 2a45 45 0 0 1-38.02 12.59z" fill="url(#d)"/><path d="M36.49 14.59l1.06 2.35s-21.38 61.2 37.29 93.13c0 0-33.73-9.81-40.85-50.73.01-.01-5.17-19.34 2.5-44.75z" fill="url(#m)"/><path d="M44.34 61.82h18v4.57h-6v14.28a4.3 4.3 0 0 0 1.3 3.72c2 1.68 13.59 2.22 16.89 2.22 1.4 0 10.7-.09 13.1-.8 4.09-1.19 4.2-3.23 4.2-4.61V66.39h-6.3v-4.57h19.38v4.57h-6.28v16c-.1 2.52-.2 5.89-5.2 8.32-3.79 1.82-10.09 2.93-18.09 2.93a65.32 65.32 0 0 1-14.7-1.46c-9.7-2.35-11.25-6.69-11.35-9.7V66.39h-4.95zM44.34 24.49h21.19l8.93 26 9.25-26h21.19v5.12h-5.21v24.87h5.22v5.12H85.54v-5.12h4.11v-24L78.58 59.6h-9.65L58.26 30.21v24.27h4.11v5.12h-18v-5.12h5.03V29.61h-5.06z" fill="#231f20" opacity=".5" style="mix-blend-mode:multiply"/><path d="M74.66 84h-.17c-3.3 0-14.88-.54-16.89-2.22A4.3 4.3 0 0 1 56.3 78V64.46h6v-5.77h-18v5.78h4.95v15.4c.1 3 1.65 7.35 11.35 9.7A64.06 64.06 0 0 0 74.66 91zM68.89 56.96h5.77v-9.63l-.24.52-8.93-26h-21.2v5.12h5.06v24.86h-5.06v5.13h18.03v-5.13h-4.11V27.57l10.68 29.39z" fill="#fff687"/><path d="M85.54 58.69v5.76h6.3v14.1c0 1.38-.11 3.41-4.2 4.61-2.36.7-11.42.8-13 .8V91h.73c8 0 14.3-1.11 18.09-2.93 5-2.44 5.1-5.8 5.2-8.32v-15.3h6.28v-5.76z" fill="url(#e)"/><path fill="url(#n)" d="M104.92 26.97v-5.12H83.73l-9.11 25.61v9.5h3.97l11.07-29.1v23.97h-4.11v5.13h19.37v-5.13H99.7V26.97h5.22z"/><path d="M74.64 89.56s-10.11 0-15-1.66-8.88-3.35-10.35-7.4c0 0-.06 4.95 7 7.71s15 2.72 18.34 2.82zM73.33 90.49s10.11 0 15-1.66 8.7-3.33 10.18-7.39c0 0 .24 4.93-6.86 7.7s-15 2.72-18.34 2.82z" fill="#cf7918"/><path d="M73.55 85.3s20.22.67 18.31-6.37A3.62 3.62 0 0 1 89 82.44c-2.92.65-6.64 1.33-15.41 1.52zM74.63 85.3s-20.21.7-18.31-6.37a3.62 3.62 0 0 0 2.89 3.5c2.92.65 6.64 1.33 15.41 1.52z" fill="#fff"/><path d="M44.43 87.79s1.38-2.79 3.87-1.54c0 0 19.63-9.22 53.46-.74 0 0 3-1 3.78 1.94 0 0-2.26 3.27-3.12 4.15S87 97.21 87 97.21s-29.31-2.67-30-2.77-10.3-3.52-10.3-3.52-.95-1.21-2.27-3.13z" fill="#231f20" opacity=".5" style="mix-blend-mode:multiply"/><path d="M74.64 101.12c24.7 1 35.64 7 36.87 7.37s1.6-1 1.72-3.93 3.32-7.25 4.06-8.73-.25-1.6-.25-1.6c-20.77-7.25-42.4-6.88-42.4-6.88h-.09S52.91 87 32.14 94.23c0 0-1 .12-.25 1.6s3.93 5.78 4.06 8.73.49 4.3 1.72 3.93 12.17-6.39 36.87-7.37z" fill="#fec00f"/><path d="M74.64 101.12c24.7 1 35.64 7 36.87 7.37s1.6-1 1.72-3.93 3.32-7.25 4.06-8.73-.25-1.6-.25-1.6c-20.77-7.25-42.4-6.88-42.4-6.88h-.09S52.91 87 32.14 94.23c0 0-1 .12-.25 1.6s3.93 5.78 4.06 8.73.49 4.3 1.72 3.93 12.17-6.39 36.87-7.37z" opacity=".48" fill="url(#o)"/><path fill="#fff687" d="M45.71 55.58v-2.3l-1.45-1.43.01 5.09 1.44-1.36z"/><path fill="#cf7918" d="M44.29 56.94l1.43-1.42 14.7-.01 1.92 1.43H44.29zM44.28 64.47l1.42-1.42h4.98l-1.45 1.42h-4.95zM62.29 64.47l-1.42-1.42h-6.04l1.46 1.42h6zM85.53 64.47l1.42-1.42h6.35l-1.46 1.42h-6.31zM104.94 64.47l-1.42-1.42h-6.35l1.46 1.42h6.31z"/><path fill="#fff" d="M44.29 59.15l1.43 1.42 14.7.01 1.92-1.43H44.29z"/><path fill="#cf7918" d="M85.54 56.94l1.42-1.42 16.04-.01 1.91 1.43H85.54z"/><path fill="#fff" d="M85.54 59.15l1.42 1.42 16.04.01 1.91-1.43H85.54zM44.26 51.85h5.1l1.44 1.44h-5.34l-1.2-1.44zM104.92 51.83H99.7l-1.44 1.44h5.46l1.2-1.44z"/><path fill="#fff687" d="M49.36 51.85v-24.9l1.45-1.45v27.78l-1.45-1.43z"/><path fill="#cf7918" d="M44.29 26.97l5.07.01 1.45-1.48h-5.07"/><path fill="#fff" d="M44.29 21.85l1.45 1.45h18.31l1.45-1.45H44.29z"/><path fill="#cf7918" d="M68.89 56.96l1.45-1.45h4.28v1.45h-5.73zM70.34 55.51L58.22 24.67v2.94l10.67 29.35 1.45-1.45zM77.12 55.65l12.51-30.67v2.94L78.65 56.96l-1.53-1.31zM78.59 56.95l-1.45-1.45h-2.52v1.46l3.97-.01z"/><path fill="#fff" d="M83.73 21.85l1.45 1.44h18.31l1.46-1.45-21.22.01z"/><path fill="#cf7918" d="M104.93 26.98l-5.23-.02-1.44-1.48h5.2l1.47 1.5z"/><path d="M46.38 93.31l.42 1.56-1.62-.67a1.5 1.5 0 0 0-.42-.12 1 1 0 0 0-.38 0 1.5 1.5 0 0 0-.94.71 1.45 1.45 0 0 0-.16 1.21 1.51 1.51 0 0 0 .48.78 3.76 3.76 0 0 0 1.21.58l1.69.57a3.23 3.23 0 0 1 1.22.64 2.1 2.1 0 0 1 .56 1 2.44 2.44 0 0 1-.32 2.09 3.29 3.29 0 0 1-2 1.3 5.92 5.92 0 0 1-1.09.18 7.31 7.31 0 0 1-1.18 0l-.43-1.58 1.73.71a1.87 1.87 0 0 0 .44.12.93.93 0 0 0 .35 0 2 2 0 0 0 1.19-.79 1.48 1.48 0 0 0 .2-1.27 1.31 1.31 0 0 0-.39-.66 2.9 2.9 0 0 0-.93-.48l-1.88-.67a3.58 3.58 0 0 1-1.29-.71 2.4 2.4 0 0 1-.3-3 3 3 0 0 1 1.78-1.2 7 7 0 0 1 1-.18q.49-.1 1.06-.12zM48.43 92.7l2.2-.47a3.73 3.73 0 0 0-.19.93 4 4 0 0 0 .1 1.06v.08l1.09 5.11a4 4 0 0 0 .34 1 3.74 3.74 0 0 0 .55.77l-2.2.47a3.57 3.57 0 0 0 .09-2.08l-1.08-5a3.57 3.57 0 0 0-.93-1.86zM52.5 91.82l1.65-.25 5.5 6.11-.74-4.81a4.08 4.08 0 0 0-.29-1.07 4.13 4.13 0 0 0-.53-.84l1.73-.27a3.63 3.63 0 0 0-.26.94 4.25 4.25 0 0 0 .05 1.13l1.1 7.15-.61.09-6.1-6.81.86 5.59a4 4 0 0 0 .28 1 3.74 3.74 0 0 0 .51.8l-1.72.27a3.66 3.66 0 0 0 .25-.93 4.39 4.39 0 0 0-.05-1.14l-.78-5.08a4.37 4.37 0 0 0-.29-1.1 3.7 3.7 0 0 0-.56-.78zM68.41 90.09l.13 1.62-1.57-1a1 1 0 0 0-.34-.14 1.85 1.85 0 0 0-.48 0A2.65 2.65 0 0 0 64 91.9a5.2 5.2 0 0 0-.58 3.17 5 5 0 0 0 1 2.94 2.59 2.59 0 0 0 2.29.91 2.25 2.25 0 0 0 .49-.09.78.78 0 0 0 .31-.16l1.56-1.4L69 99q-.6.19-1.17.31a8.51 8.51 0 0 1-1.09.16 4.36 4.36 0 0 1-3.37-.9A4.69 4.69 0 0 1 62 95.31a5.18 5.18 0 0 1 .94-3.71A4.24 4.24 0 0 1 66.1 90a9 9 0 0 1 1.08 0q.57 0 1.23.09zM70.13 89.9l5.62-.07v1.76l-1.33-1a.86.86 0 0 0-.3-.15 1.39 1.39 0 0 0-.39 0h-1.85v3.74h1.71a1 1 0 0 0 .31-.08 1.68 1.68 0 0 0 .36-.19l.81-.61v2.15l-.79-.55a1 1 0 0 0-.34-.16 2.29 2.29 0 0 0-.55 0h-1.54v3.82h2a1 1 0 0 0 .58-.24l.1-.08 1.36-1-.07 1.76-5.58.07a4.38 4.38 0 0 0 .38-.93 4.14 4.14 0 0 0 .12-1.14l-.07-5.14a4.12 4.12 0 0 0-.14-1.11 3.69 3.69 0 0 0-.4-.85zM85.21 90.18l-.63 7.47a3.46 3.46 0 0 0 0 1 3.57 3.57 0 0 0 .32.85l-2.29-.19a3.72 3.72 0 0 0 .49-.87 4.09 4.09 0 0 0 .22-1.1v-.17l.46-5.47-2.07-.17a10.47 10.47 0 0 0 1.35-.46q.94-.32 2.15-.89zM87.56 99.18l.57.17.55.11a3.13 3.13 0 0 0 2.51-.55 4.46 4.46 0 0 0 1.4-2.55 4.36 4.36 0 0 1-1 .21 4.09 4.09 0 0 1-1 0 2.68 2.68 0 0 1-1.83-1 2.59 2.59 0 0 1-.46-2 2.83 2.83 0 0 1 1.14-2 3 3 0 0 1 2.32-.57 2.71 2.71 0 0 1 2.1 1.32 4.65 4.65 0 0 1 .35 3 6.91 6.91 0 0 1-1.61 3.87 3.6 3.6 0 0 1-4.15.65 3.22 3.22 0 0 1-.89-.66zM92.68 96q.07-.25.11-.47c0-.15.05-.28.07-.41a5.89 5.89 0 0 0 0-2.57 1.35 1.35 0 0 0-1.16-1 1.41 1.41 0 0 0-1.29.38 2.85 2.85 0 0 0-.65 1.6 2.34 2.34 0 0 0 .24 1.66 1.91 1.91 0 0 0 1.39.76A4.59 4.59 0 0 0 92 96a5.22 5.22 0 0 0 .68 0zM99.25 96.64a5 5 0 0 1 1.39 1.53 2.34 2.34 0 0 1 .16 1.56 2.38 2.38 0 0 1-1.21 1.7 3.38 3.38 0 0 1-2.36.22 3 3 0 0 1-1.83-1.08 2.17 2.17 0 0 1-.4-1.84 2.13 2.13 0 0 1 .86-1.33 3.52 3.52 0 0 1 1.8-.59 3.58 3.58 0 0 1-1.07-1.3 2.29 2.29 0 0 1-.14-1.43 2.12 2.12 0 0 1 1-1.49 2.67 2.67 0 0 1 1.94-.21 2.78 2.78 0 0 1 1.66.89 1.8 1.8 0 0 1 .33 1.58 2 2 0 0 1-.68 1.15 3.21 3.21 0 0 1-1.45.64zm-1.31.45a4 4 0 0 0-1.24.81 2.07 2.07 0 0 0-.57 1 1.93 1.93 0 0 0 .18 1.44 1.66 1.66 0 0 0 1.15.76 1.82 1.82 0 0 0 1.39-.2 1.66 1.66 0 0 0 .75-1.12 1.62 1.62 0 0 0-.16-1.14 7.31 7.31 0 0 0-1.5-1.55zm1-.75a3.2 3.2 0 0 0 .91-.75 2.18 2.18 0 0 0 .46-.94 1.57 1.57 0 0 0-.13-1.15 1.3 1.3 0 0 0-.9-.6 1.35 1.35 0 0 0-1.71 1.1 1.54 1.54 0 0 0 .19 1.13 4.47 4.47 0 0 0 1.18 1.21zM107.67 94.39l-2 7.22a3.45 3.45 0 0 0-.16 1 3.59 3.59 0 0 0 .15.9l-2.21-.62a3.71 3.71 0 0 0 .65-.77 4.08 4.08 0 0 0 .43-1v-.16l1.47-5.31-2-.56a10.41 10.41 0 0 0 1.41-.2q.93-.17 2.26-.5z" fill="#007949"/><path d="M145.72 136.7a1 1 0 0 0 .51.15c.3 0 .47-.16.47-.38s-.12-.33-.42-.44-.59-.33-.59-.64a.64.64 0 0 1 .72-.61 1 1 0 0 1 .49.11l-.08.24a.83.83 0 0 0-.42-.11c-.31 0-.42.18-.42.34s.14.31.44.43.57.33.57.66-.25.65-.78.65a1.16 1.16 0 0 1-.57-.15zM149.64 136.07v-1c-.08.26-.17.54-.28.85l-.39 1.09h-.22l-.37-1.07c-.11-.32-.19-.6-.26-.87v1l-.06 1h-.28l.16-2.24h.37l.38 1.08c.09.28.17.52.23.75.06-.23.14-.47.24-.75l.4-1.08h.37l.14 2.24h-.29z" fill="#006838"/></g></g></svg>