<svg xmlns="http://www.w3.org/2000/svg" viewBox="0 0 150 150"><title>rb-fusion-logo</title><path d="M130.38 63.9A54.08 54.08 0 1 1 76.3 9.82a54.08 54.08 0 0 1 54.08 54.08zm-54.1-51.31a51.23 51.23 0 1 0 51.23 51.23 51.23 51.23 0 0 0-51.23-51.23zM75.23 1.15h1.99v7.88h-1.99zM131.15 63h7.78v1.93h-7.78zM75.27 118.88h1.95v7.77h-1.95zM13.52 63h7.77v1.96h-7.77zM69.46 17.89V52.1h-9.37l9 12.28h-9L49.32 52.15H39.1c-.82 2.62-2 9.54-1.73 12.22h-7.53a46.57 46.57 0 0 1 39.62-46.48zm-26.9 26.53H62V27.57C54.48 30.37 45.75 38 42.56 44.42zM76 45.06h1.43v5.89c-.65-.31-1.72 0-1.72.78a1.38 1.38 0 0 0 1.72 1.11v.88c-.61-.24-1.72.07-1.72.78a1.22 1.22 0 0 0 1.72.85v4.38H76v-3.48a1.93 1.93 0 0 1-1.67-1.72c0-.7.31-1.21.73-1.31a1.36 1.36 0 0 1-.73-1.4 2 2 0 0 1 1.7-2zM116.45 40.74l-1.6 4.79a23 23 0 0 1 5.66 4.26c.93 1.92 2.56 10.64 2.06 14.58H82.71V17.89c16.04 2.02 28.82 13.33 33.74 22.85zm-26.76 8.45v8.61h25c-.5-2.76-2.26-7.09-6.55-8.62zm0-21.79v14.83h17.2v-2.3c-3.35-4.75-11.77-11.14-17.2-12.54zM119.53 80.59c-1.83 5.53-8.36 15-13.45 18.8H95.33v-18.8zm-18.23 5.92v6.83h4.61c1.59-1.6 4.48-5.35 4.92-6.83zM90.47 70.92v10.65h-7.76v-3.94H39.8a39.27 39.27 0 0 0 50.67 22.53V108c-27.58 9.3-55.74-9.54-60-37.12zM37.65 133.72a8.38 8.38 0 0 1-.72 1.12q-.51.69-1.08 1.37a12.35 12.35 0 0 1-1.11 1.17q-.54.49-.78.49H24.5l-1.75 4.82 2.92-2.83h7.1l-4.4 4.14h-6.11l-2.18 6h-5.87l5.93-16.28zM36.17 140.54l2.43-6.82h5.81q-1.08 3.13-1.66 4.87t-.86 2.6q-.28.86-.34 1.09a1.47 1.47 0 0 0-.06.32 4.27 4.27 0 0 0-.15 1 2.46 2.46 0 0 0 .52 1.67 1.74 1.74 0 0 0 1.38.6h1.51a3.07 3.07 0 0 0 1.37-.31 4.53 4.53 0 0 0 1.12-.77 6.43 6.43 0 0 0 .86-1 7.49 7.49 0 0 0 .58-1l3.32-9.07h5.84l-2.77 7.59A36.52 36.52 0 0 1 53.5 145a11.65 11.65 0 0 1-1.81 2.72 6.78 6.78 0 0 1-2.33 1.67 8 8 0 0 1-3.16.57h-3.6a21.63 21.63 0 0 1-3.58-.25 6.35 6.35 0 0 1-2.29-.78 3 3 0 0 1-1.23-1.4 5.3 5.3 0 0 1-.37-2.09 5.71 5.71 0 0 1 0-.71q0-.37.11-.8.15-.8.38-1.6t.55-1.79zM68.22 144.84v-.18a1.52 1.52 0 0 0-.09-.51.34.34 0 0 0-.34-.26h-6.15a3.14 3.14 0 0 1-1.66-.45 4.64 4.64 0 0 1-1.28-1.14 5.07 5.07 0 0 1-.81-1.52 5.13 5.13 0 0 1-.28-1.63 4.08 4.08 0 0 1 .43-1.67 8.57 8.57 0 0 1 1.11-1.78 6.67 6.67 0 0 1 1.54-1.41 3.1 3.1 0 0 1 1.72-.57h15.67a22.11 22.11 0 0 1-1.61 2.09q-.91 1-2 2.09H64.32q-.34 0-.58.46a1.7 1.7 0 0 0-.25.74v.15s0 .07.12.14l.18.17a1.23 1.23 0 0 0 .35.23l.26.11h5.84a3 3 0 0 1 1.69.48 3.91 3.91 0 0 1 1.15 1.2 5.65 5.65 0 0 1 .66 1.55 6.16 6.16 0 0 1 .22 1.54v.18a4.54 4.54 0 0 1-.37 1.71 7 7 0 0 1-1 1.67 5.62 5.62 0 0 1-1.38 1.28 2.93 2.93 0 0 1-1.61.51H54a8.93 8.93 0 0 1 .63-1q.48-.68 1-1.37t1-1.23q.46-.54.55-.54H67.6q.46 0 .54-.28a2.18 2.18 0 0 0 .08-.58zM73.32 150a3.42 3.42 0 0 1 .45-.68q.41-.55 1-1.23t1.17-1.31a6 6 0 0 1 1-.91h3.69l2.92-8h-5.81a3.43 3.43 0 0 1 .45-.68q.41-.55 1-1.23t1.17-1.31a6.06 6.06 0 0 1 1-.91h15.4a8.38 8.38 0 0 1-.72 1.12q-.51.69-1.08 1.37a12.39 12.39 0 0 1-1.11 1.17q-.54.49-.78.49h-3.62l-2.92 8h5.81a8.41 8.41 0 0 1-.72 1.12q-.51.69-1.08 1.37a12.42 12.42 0 0 1-1.11 1.17q-.54.49-.78.49H73.32zM114.49 144.59a11 11 0 0 1-5.36 4.7 9.1 9.1 0 0 1-3.52.71h-3.07a16.66 16.66 0 0 1-3.13-.28 7.1 7.1 0 0 1-2.49-.94 4.64 4.64 0 0 1-1.64-1.8 6.09 6.09 0 0 1-.6-2.86q0-.37 0-.77t.09-.83a9.53 9.53 0 0 1 1.14-3.32 11.19 11.19 0 0 1 2.21-2.81 11.37 11.37 0 0 1 2.9-2 7.53 7.53 0 0 1 3.21-.74h4.06A10.24 10.24 0 0 1 114 135a4.69 4.69 0 0 1 1.92 4.22 11.34 11.34 0 0 1-.18 2 9.69 9.69 0 0 1-1.25 3.37zm-13.95-2.27v.18a3.41 3.41 0 0 0 .21 1.15 4.12 4.12 0 0 0 .58 1.09 3.17 3.17 0 0 0 .86.8 1.94 1.94 0 0 0 1 .31h2a2.32 2.32 0 0 0 .88-.26 7.62 7.62 0 0 0 1.18-.69 9.44 9.44 0 0 0 1.17-1 4.34 4.34 0 0 0 .83-1.06 2.54 2.54 0 0 0 .34-.68l.12-.31a1.87 1.87 0 0 1 .06-.28v-1.05a5.31 5.31 0 0 0-.09-1 2.16 2.16 0 0 0-.37-.88 2 2 0 0 0-.75-.61 2.88 2.88 0 0 0-1.24-.23H105a2.56 2.56 0 0 0-1.06.26 5.73 5.73 0 0 0-1.12.69 7.66 7.66 0 0 0-1 1 5.48 5.48 0 0 0-.75 1.06l-.28.69a2.49 2.49 0 0 0-.15.57.41.41 0 0 0-.1.25zM120.14 133.72h7.44l1.75 9.16 3.35-9.16h5.84L132.58 150h-7.44l-1.72-9.16-3.31 9.16h-5.9z" fill="#0033a0"/></svg>