<svg xmlns="http://www.w3.org/2000/svg" viewBox="0 0 776.3 133.3" enable-background="new 0 0 776.3 133.3"><style type="text/css">.st0{fill:#FFFFFF;}</style><g id="Logo"><path class="st0" d="M124.1 66.7c0 31.7-25.7 57.4-57.4 57.4S9.2 98.4 9.2 66.7 35 9.2 66.7 9.2s57.4 25.7 57.4 57.5zM66.7 12.1c-30 0-54.4 24.4-54.4 54.4S36.6 121 66.7 121s54.4-24.4 54.4-54.4-24.4-54.5-54.4-54.5zM65.6 0h2.1v8.4h-2.1zM124.9 65.7h8.3v2.1h-8.3zM65.6 125.1h2.1v8.2h-2.1zM0 65.7h8.2v2.1H0zM59.4 17.8v36.3h-10l9.6 13h-9.6L38 54.2H27.2c-.9 2.8-2.1 10.1-1.8 13h-8C16.8 46 32 22 59.4 17.8zM30.9 46h20.6V28.1C43.5 31 34.2 39.2 30.9 46zM66.3 46.6h1.5v6.2c-.7-.3-1.8 0-1.8.8s1.1 1.5 1.8 1.2v.9c-.6-.3-1.8.1-1.8.8s1.2 1.3 1.8.9v4.7h-1.5v-3.7c-.7 0-1.8-.8-1.8-1.8 0-.8.3-1.3.8-1.4-.6-.3-.8-.7-.8-1.5 0-.9.8-2.1 1.8-2.1v-5zM109.3 42l-1.7 5.1c1.1.5 4.9 3.1 6 4.5 1 2 2.7 11.3 2.2 15.5H73.5V17.8c17 2.1 30.6 14.1 35.8 24.2zm-28.4 9v9.1h26.6c-.5-2.9-2.4-7.5-7-9.2 0 .1-19.6.1-19.6.1zm0-23.1v15.8h18.3v-2.4c-3.6-5.2-12.5-11.9-18.3-13.4zM112.6 84.4c-1.9 5.9-8.9 15.9-14.3 20H86.9v-20h25.7zm-19.4 6.3V98h4.9c1.7-1.7 4.8-5.7 5.2-7.3H93.2zM81.7 74.1v11.3h-8.2v-4.2H27.9c7.6 20.2 30.8 32.4 53.8 23.9v8.4c-29.3 9.9-59.2-10.1-63.8-39.4h63.8z"/></g><g id="R_x26_B_Company"><path class="st0" d="M231.6 89.1h-5.2v-7.7c0-1.2 0-2.3-.1-3.2 0-.9-.2-1.7-.5-2.3-.3-.7-.7-1.2-1.2-1.6-.6-.4-1.3-.7-2.4-.9-1-.2-2.3-.4-3.9-.4-1.6-.1-3.5-.1-5.8-.1h-23.2v16.3h-5.2V47.8h29.2c3.1 0 5.8.1 8 .3 2.2.2 3.9.6 5.4 1 1.4.5 2.5 1 3.2 1.7.8.7 1.3 1.4 1.7 2.3.4.9.6 1.9.6 3 .1 1.1.1 2.3.1 3.7 0 1.7-.1 3.2-.4 4.5s-.6 2.4-1.2 3.3c-.6.9-1.3 1.6-2.3 2.2s-2.1.9-3.6 1.1c1.4.2 2.6.6 3.4 1.1s1.5 1.2 2 2.1.8 1.9.9 3.1c.1 1.2.2 2.5.2 4l.3 7.9zm-42.2-20.7h24.1c2.3 0 4.2 0 5.8-.1 1.6-.1 2.9-.2 3.9-.4s1.8-.5 2.4-.9c.6-.4 1-.9 1.2-1.6.3-.7.4-1.4.5-2.3 0-.9.1-2 .1-3.2 0-1.2 0-2.2-.1-3 0-.8-.2-1.5-.5-2.1-.3-.6-.7-1-1.2-1.4-.6-.3-1.3-.6-2.4-.8-1-.2-2.3-.3-3.9-.4-1.6 0-3.5-.1-5.8-.1h-24.1v16.3zM283.2 68.4h5.2v1.7c0 2.8-.1 5.1-.3 7.2s-.6 3.7-1.1 5.1-1.4 2.5-2.5 3.4-2.5 1.6-4.2 2c-1.7.5-3.8.8-6.3 1-2.5.2-5.4.3-8.9.3-3.2 0-6 0-8.5-.1s-4.7-.2-6.6-.4c-1.9-.2-3.5-.7-4.9-1.2-1.4-.6-2.5-1.3-3.3-2.4-.9-1-1.5-2.3-1.9-3.9-.4-1.6-.6-3.5-.6-5.8 0-1.7.2-3.2.6-4.5.4-1.3.9-2.3 1.5-3.2s1.3-1.6 2-2.2c.7-.6 1.4-1 2.1-1.3.7-.3 1.3-.5 1.9-.7s1-.2 1.3-.2c-.6-.4-1.2-.9-1.8-1.3s-1-.9-1.4-1.5-.7-1.1-.9-1.8c-.2-.7-.3-1.4-.3-2.3 0-1.7.3-3.2.9-4.3.6-1.1 1.3-2.1 2.3-2.8 1-.7 2.1-1.2 3.3-1.6s2.6-.6 4-.7c1.4-.1 2.8-.2 4.3-.2h4.2c2.9 0 5.4 0 7.5.1 2.1.1 4 .3 5.5.5 1.5.3 2.8.7 3.8 1.2s1.8 1.2 2.3 2.1c.6.9 1 2 1.2 3.3.2 1.3.3 2.9.3 4.8h-5.2c0-1.3-.1-2.4-.2-3.3s-.4-1.6-.8-2.2c-.4-.6-.9-1-1.6-1.3s-1.6-.5-2.8-.7-2.5-.2-4.2-.2h-5.9c-2.6 0-4.8 0-6.5.1-1.8 0-3.2.2-4.2.6s-1.9.8-2.3 1.5c-.5.7-.7 1.7-.7 3 0 .5.1.9.2 1.4.1.4.4.9.7 1.3s.8.8 1.3 1.3 1.2.8 2.1 1.2l43.9 22.4-1.7 4.3-43-21.5c-1.3 0-2.5.2-3.5.5s-2 .8-2.7 1.5c-.8.7-1.3 1.6-1.8 2.7s-.6 2.4-.6 3.9c0 1.4.1 2.6.3 3.6.2 1 .6 1.8 1.2 2.4.6.6 1.4 1.1 2.3 1.5 1 .3 2.2.6 3.8.8s3.4.3 5.5.3h13.6c1.8 0 3.3-.1 4.7-.3 1.3-.2 2.5-.4 3.4-.7.9-.3 1.7-.8 2.2-1.5.6-.6 1-1.4 1.2-2.4.3-1 .4-2.2.4-3.7l.2-6.8zM300.9 89.1V47.8h34.4c2.6 0 4.7.2 6.2.6 1.6.4 2.8 1 3.6 1.8.9.8 1.4 1.8 1.7 3 .3 1.2.4 2.6.4 4.2 0 1.2-.1 2.2-.3 3-.2.9-.5 1.6-.8 2.3s-.7 1.2-1.1 1.6c-.4.4-.8.8-1.3 1.1-1 .7-2.1 1.1-3.4 1.2 1.6.1 3 .5 4.3 1.2.5.3 1.1.7 1.6 1.1.5.5 1 1 1.4 1.7.4.7.7 1.5 1 2.4.2.9.4 1.9.4 3.1 0 1.4-.1 2.8-.2 3.9s-.4 2.3-.8 3.2-1 1.8-1.8 2.5-1.8 1.3-3.1 1.8-2.9.8-4.7 1.1c-1.9.2-4.1.3-6.6.3l-30.9.2zM330.1 65c1.8 0 3.3 0 4.5-.1 1.3-.1 2.4-.2 3.2-.4.9-.2 1.6-.5 2.2-.8s1-.8 1.3-1.4.5-1.2.6-2c.1-.8.2-1.7.2-2.8 0-1.2-.1-2.1-.4-2.8-.2-.7-.7-1.3-1.3-1.7-.6-.4-1.5-.7-2.6-.8-1.1-.1-2.5-.2-4.2-.2H306v13h24.1zm0 19.8c2 0 3.8 0 5.2-.1s2.7-.2 3.7-.4 1.9-.5 2.5-.9c.6-.4 1.1-.9 1.5-1.5.4-.6.6-1.4.7-2.3.1-.9.2-2 .2-3.3 0-1-.1-1.9-.2-2.6-.1-.7-.4-1.4-.7-1.9-.4-.5-.8-.9-1.5-1.2-.6-.3-1.5-.6-2.5-.7s-2.3-.3-3.7-.4-3.2-.1-5.2-.1H306v15.5l24.1-.1zM417.1 60.7c0-2.2-.2-3.8-.7-5.1-.5-1.2-1.2-2.2-2.3-2.8-1.1-.7-2.5-1.1-4.2-1.2-1.8-.2-3.9-.3-6.5-.3h-12.1c-2.3 0-4.2.1-5.8.2-1.6.1-2.9.4-3.9.8s-1.8 1-2.4 1.8-1 1.8-1.2 3.1c-.2 1.3-.4 2.8-.4 4.7v6.7c0 2.6 0 4.8.1 6.7 0 1.8.2 3.4.4 4.7.2 1.3.6 2.3 1.2 3.1.5.8 1.3 1.4 2.4 1.8 1 .4 2.3.7 3.9.8 1.6.1 3.5.2 5.8.2h12.1c2 0 3.7-.1 5.2-.2s2.7-.3 3.7-.6 1.9-.7 2.5-1.2c.6-.5 1.1-1.1 1.5-1.9.4-.8.6-1.7.7-2.7.1-1.1.2-2.3.2-3.8h5.2c0 1.7-.1 3.3-.3 4.7-.2 1.4-.6 2.6-1.1 3.7-.5 1.1-1.3 2-2.2 2.8s-2.1 1.4-3.5 1.9-3.1.9-5 1.1c-1.9.2-4.2.4-6.8.4h-12.1c-3.2 0-5.8-.2-8-.6-2.2-.4-3.9-1-5.3-1.8s-2.5-1.8-3.2-2.9c-.8-1.2-1.3-2.6-1.7-4.2s-.5-3.4-.6-5.4-.1-4.2-.1-6.7c0-2.4 0-4.7.1-6.7s.3-3.8.6-5.4c.4-1.6.9-3 1.7-4.2.8-1.2 1.8-2.2 3.2-2.9s3.2-1.4 5.3-1.8 4.8-.6 8-.6h12.1c2.6 0 4.8.1 6.8.4s3.6.6 5 1.1c1.4.5 2.5 1.1 3.5 1.9s1.6 1.6 2.2 2.7.9 2.2 1.1 3.5c.2 1.3.3 2.7.3 4.3l-5.4-.1zM463.6 46.9c3.1 0 5.8.2 8 .6 2.2.4 3.9 1 5.3 1.8s2.5 1.8 3.2 2.9c.8 1.2 1.3 2.6 1.6 4.2.4 1.6.6 3.4.6 5.4.1 2 .1 4.2.1 6.7 0 2.4 0 4.7-.1 6.7s-.3 3.8-.6 5.4c-.4 1.6-.9 3-1.6 4.2-.8 1.2-1.8 2.2-3.2 2.9-1.4.8-3.2 1.4-5.3 1.8s-4.8.6-8 .6h-15.5c-3.2 0-5.8-.2-8-.6-2.2-.4-3.9-1-5.3-1.8s-2.5-1.8-3.2-2.9c-.8-1.2-1.3-2.6-1.7-4.2s-.5-3.4-.6-5.4-.1-4.2-.1-6.7c0-2.4 0-4.7.1-6.7s.3-3.8.6-5.4.9-3 1.7-4.2c.8-1.2 1.8-2.2 3.2-2.9s3.2-1.4 5.3-1.8 4.8-.6 8-.6h15.5zm0 38.7c2.3 0 4.2-.1 5.8-.2 1.6-.1 2.9-.4 3.9-.8s1.8-1 2.4-1.8 1-1.8 1.2-3.1c.2-1.3.4-2.8.4-4.7 0-1.9.1-4.1.1-6.7 0-2.6 0-4.8-.1-6.7 0-1.8-.2-3.4-.4-4.7-.2-1.3-.6-2.3-1.2-3.1-.6-.8-1.3-1.4-2.4-1.8s-2.3-.7-3.9-.8c-1.6-.1-3.5-.2-5.8-.2h-15.5c-2.3 0-4.2.1-5.8.2-1.6.1-2.9.4-3.9.8s-1.8 1-2.4 1.8-1 1.8-1.2 3.1c-.2 1.3-.4 2.8-.4 4.7v6.7c0 2.6 0 4.8.1 6.7 0 1.8.2 3.4.4 4.7.2 1.3.6 2.3 1.2 3.1.5.8 1.3 1.4 2.4 1.8 1 .4 2.3.7 3.9.8 1.6.1 3.5.2 5.8.2h15.4zM496.3 51.2v37.9h-5.2V47.8h8.3l24.1 36.1 24.1-36.1h8.5v41.3h-5.2V51.8l-24.5 37.3h-5.2l-24.9-37.9zM566.4 47.8h31c2.6 0 4.7.1 6.5.3 1.8.2 3.2.6 4.4 1 1.2.5 2 1 2.7 1.7.6.7 1.1 1.4 1.4 2.3s.5 1.9.5 3 .1 2.3.1 3.7c0 1.4 0 2.7-.1 3.9-.1 1.2-.3 2.3-.6 3.2s-.9 1.8-1.7 2.5c-.8.7-1.8 1.3-3.2 1.8-1.4.5-3.2.8-5.3 1.1s-4.8.4-8 .4h-22.3V89h-5.2l-.2-41.2zm5.2 20.6h22.3c2.3 0 4.2 0 5.8-.1 1.6-.1 2.9-.2 3.9-.4s1.8-.5 2.4-.9c.6-.4 1-.9 1.2-1.6.3-.7.4-1.4.5-2.3 0-.9.1-2 .1-3.2 0-1.2 0-2.2-.1-3 0-.8-.2-1.5-.5-2.1s-.7-1-1.2-1.4c-.6-.3-1.3-.6-2.4-.8-1-.2-2.3-.3-3.9-.4s-3.5-.1-5.8-.1h-22.3v16.3zM654.5 79.6h-32.3l-5.4 9.5h-6l23.6-41.3h7.4l23.5 41.3h-5.4l-5.4-9.5zm-2.5-4.3l-13.7-24.1-13.7 24.1H652zM673.5 89.1h-5.2V47.8h9.1l37.9 36.1V47.8h5.2v41.3h-6.9l-40-37v37zM724.6 47.8h6.9l19 20.2 18.9-20.2h6.9L753 71.9v17.2h-5.2V71.9l-23.2-24.1z"/></g></svg>