<svg xmlns="http://www.w3.org/2000/svg" viewBox="0 0 776.27 133.3"><defs><style>.cls-1{fill:#fff;}</style></defs><title>rb-logo-white</title><g id="Logo"><path class="cls-1" d="M124.13 66.65A57.44 57.44 0 1 1 66.69 9.21a57.44 57.44 0 0 1 57.44 57.44zm-57.47-54.5a54.42 54.42 0 1 0 54.42 54.42 54.42 54.42 0 0 0-54.42-54.42zM65.55 0h2.11v8.37h-2.11zM124.94 65.69h8.26v2.05h-8.26zM65.59 125.06h2.07v8.25h-2.07zM0 65.69h8.25v2.08H0zM59.42 17.78v36.34h-10l9.6 13h-9.6L38 54.17H27.17C26.3 57 25 64.31 25.33 67.15h-8a49.47 49.47 0 0 1 42.09-49.37zM30.85 46h20.63V28.06C43.51 31 34.23 39.15 30.85 46zM66.35 46.64h1.52v6.25c-.69-.33-1.83 0-1.83.82a1.48 1.48 0 0 0 1.83 1.18v.93c-.64-.26-1.83.08-1.83.82a1.3 1.3 0 0 0 1.83.9v4.66h-1.52v-3.68a2.06 2.06 0 0 1-1.78-1.83c0-.75.33-1.29.78-1.39a1.44 1.44 0 0 1-.78-1.49 2.14 2.14 0 0 1 1.8-2.08zM109.33 42l-1.7 5.09a24.64 24.64 0 0 1 6 4.52c1 2 2.72 11.3 2.19 15.49H73.5V17.78c17.03 2.15 30.6 14.16 35.83 24.22zm-28.42 9v9.15h26.58c-.53-2.93-2.4-7.53-7-9.15zm0-23.15v15.78h18.27V41.2c-3.56-5.06-12.51-11.84-18.27-13.33zM112.61 84.38c-1.94 5.87-8.88 15.9-14.29 20H86.9v-20zm-19.37 6.29v7.26h4.9c1.69-1.7 4.76-5.69 5.22-7.26zM81.74 74.11v11.31H73.5v-4.18H27.92a41.7 41.7 0 0 0 53.82 23.93v8.37c-29.29 9.88-59.2-10.13-63.74-39.43z"/></g><g id="R_B_Company"><path class="cls-1" d="M231.56 89.08h-5.16v-7.74c0-1.25 0-2.33-.07-3.24a7.08 7.08 0 0 0-.46-2.33 3.44 3.44 0 0 0-1.22-1.56 6.37 6.37 0 0 0-2.37-.91 25.2 25.2 0 0 0-3.89-.44q-2.36-.12-5.79-.12h-23.2v16.35h-5.16v-41.3h29.23a77.38 77.38 0 0 1 8 .34 26.88 26.88 0 0 1 5.35 1 9 9 0 0 1 3.18 1.68 5.91 5.91 0 0 1 1.67 2.34 9.69 9.69 0 0 1 .62 3c.06 1.11.09 2.34.09 3.68a25.2 25.2 0 0 1-.36 4.53 9.44 9.44 0 0 1-1.22 3.32 6.5 6.5 0 0 1-2.29 2.19A10 10 0 0 1 225 71a9.08 9.08 0 0 1 3.44 1.13 5.64 5.64 0 0 1 2 2.1 8.59 8.59 0 0 1 .93 3.07 32.26 32.26 0 0 1 .23 4v7.73zM189.4 68.43h24.06c2.29 0 4.23 0 5.79-.12a26.67 26.67 0 0 0 3.89-.44 6.37 6.37 0 0 0 2.37-.91 3.37 3.37 0 0 0 1.22-1.56 7.35 7.35 0 0 0 .46-2.33c0-.9.07-2 .07-3.24s0-2.17-.07-3a5.78 5.78 0 0 0-.46-2.12 3.1 3.1 0 0 0-1.22-1.37 7.1 7.1 0 0 0-2.37-.79 26.52 26.52 0 0 0-3.89-.36c-1.57 0-3.5-.08-5.79-.08H189.4zM283.19 68.43h5.16v1.72q0 4.14-.28 7.15a18.14 18.14 0 0 1-1.14 5.11 8.4 8.4 0 0 1-2.45 3.4 11.28 11.28 0 0 1-4.17 2 31.88 31.88 0 0 1-6.31 1q-3.72.25-8.89.26c-3.16 0-6 0-8.48-.07a60.88 60.88 0 0 1-6.61-.44 19.81 19.81 0 0 1-4.91-1.21 8.4 8.4 0 0 1-3.33-2.35 9.51 9.51 0 0 1-1.88-3.88 24.39 24.39 0 0 1-.59-5.79 15.32 15.32 0 0 1 .58-4.48 12.14 12.14 0 0 1 1.49-3.24 9.07 9.07 0 0 1 2-2.18 11.78 11.78 0 0 1 2.15-1.32 9.14 9.14 0 0 1 1.92-.66 6.94 6.94 0 0 1 1.3-.17A18.34 18.34 0 0 1 247 62a7.89 7.89 0 0 1-1.36-1.48 6.26 6.26 0 0 1-.87-1.8 7.6 7.6 0 0 1-.31-2.29 9.56 9.56 0 0 1 .85-4.29 7.39 7.39 0 0 1 2.29-2.76 10 10 0 0 1 3.33-1.56 23.71 23.71 0 0 1 4-.7c1.4-.13 2.82-.18 4.28-.17h4.19c2.87 0 5.37 0 7.52.12a42.76 42.76 0 0 1 5.5.52 12.92 12.92 0 0 1 3.76 1.18 6.08 6.08 0 0 1 2.34 2.12 9 9 0 0 1 1.2 3.32 29.41 29.41 0 0 1 .34 4.77h-5.16a23.22 23.22 0 0 0-.19-3.27 5.15 5.15 0 0 0-.77-2.19 3.76 3.76 0 0 0-1.63-1.32 9.93 9.93 0 0 0-2.77-.67 39.23 39.23 0 0 0-4.21-.25h-5.93q-3.87 0-6.51.08a17 17 0 0 0-4.25.56 4 4 0 0 0-2.31 1.53 5.32 5.32 0 0 0-.7 3 4.17 4.17 0 0 0 .22 1.36 4.29 4.29 0 0 0 .71 1.3 6.68 6.68 0 0 0 1.32 1.26 14.13 14.13 0 0 0 2.06 1.24l43.88 22.37-1.72 4.3-43-21.54a12.13 12.13 0 0 0-3.52.48 7 7 0 0 0-2.72 1.52 6.83 6.83 0 0 0-1.75 2.67 11.26 11.26 0 0 0-.62 3.95 16.34 16.34 0 0 0 .34 3.63 5.16 5.16 0 0 0 1.2 2.43 5.39 5.39 0 0 0 2.34 1.46 17.47 17.47 0 0 0 3.78.75c1.53.16 3.37.26 5.5.28s4.63 0 7.5 0q3.44 0 6.12 0t4.68-.27a14.66 14.66 0 0 0 3.39-.74 5.58 5.58 0 0 0 2.25-1.47 5.84 5.84 0 0 0 1.25-2.43 14.59 14.59 0 0 0 .39-3.66v-6.91zM300.91 89.08v-41.3h34.44a25.07 25.07 0 0 1 6.24.63 8.26 8.26 0 0 1 3.64 1.85 6.08 6.08 0 0 1 1.71 3 18.24 18.24 0 0 1 .43 4.19 13.78 13.78 0 0 1-.3 3 10.39 10.39 0 0 1-.78 2.29 6.73 6.73 0 0 1-1.1 1.63 7.32 7.32 0 0 1-1.26 1.09 6.86 6.86 0 0 1-3.44 1.16 9.82 9.82 0 0 1 4.3 1.18 9.61 9.61 0 0 1 1.57 1.2 7.28 7.28 0 0 1 1.37 1.69 9.54 9.54 0 0 1 1 2.37 11.77 11.77 0 0 1 .38 3.13 36.49 36.49 0 0 1-.2 3.94 11.11 11.11 0 0 1-.82 3.21 7.41 7.41 0 0 1-1.77 2.5 9.17 9.17 0 0 1-3.08 1.79 21.42 21.42 0 0 1-4.71 1.06 55 55 0 0 1-6.65.35h-31zM330.14 65c1.76 0 3.27 0 4.54-.11a21.48 21.48 0 0 0 3.25-.4 7 7 0 0 0 2.18-.82 3.68 3.68 0 0 0 1.3-1.36 5.74 5.74 0 0 0 .63-2 20.34 20.34 0 0 0 .16-2.78 8.67 8.67 0 0 0-.38-2.8 3 3 0 0 0-1.34-1.65 6.77 6.77 0 0 0-2.62-.78 35 35 0 0 0-4.23-.2h-27.56V65h24.07zm0 19.79q3 0 5.22-.09a25.06 25.06 0 0 0 3.74-.4 7.53 7.53 0 0 0 2.47-.89 4.07 4.07 0 0 0 1.43-1.54 6.59 6.59 0 0 0 .71-2.33 24 24 0 0 0 .19-3.31 15.44 15.44 0 0 0-.19-2.62 4.73 4.73 0 0 0-.71-1.88 3.84 3.84 0 0 0-1.47-1.24 9.33 9.33 0 0 0-2.47-.74 28.76 28.76 0 0 0-3.74-.36q-2.21-.09-5.22-.09h-24.02v15.49h24.06zM417.14 60.69a15 15 0 0 0-.7-5.11 5.47 5.47 0 0 0-2.31-2.85 10.22 10.22 0 0 0-4.23-1.24q-2.62-.27-6.49-.27h-12.07c-2.29 0-4.23.07-5.79.2a13.64 13.64 0 0 0-3.89.82 5.22 5.22 0 0 0-2.37 1.76 7.67 7.67 0 0 0-1.21 3.07 28 28 0 0 0-.43 4.69v6.66s0 4.8.07 6.66a27.93 27.93 0 0 0 .44 4.69 8 8 0 0 0 1.2 3.07 5.16 5.16 0 0 0 2.35 1.77 13.56 13.56 0 0 0 3.89.82c1.57.14 3.5.2 5.79.2h12.07c2 0 3.74-.05 5.19-.16a19.9 19.9 0 0 0 3.71-.59 6.77 6.77 0 0 0 2.47-1.18 5 5 0 0 0 1.47-1.9 9 9 0 0 0 .71-2.74 31.61 31.61 0 0 0 .19-3.75h5.16A31.43 31.43 0 0 1 422 80a12.7 12.7 0 0 1-1.14 3.71 9.24 9.24 0 0 1-2.19 2.81 11 11 0 0 1-3.47 1.95 23 23 0 0 1-5 1.13 55.83 55.83 0 0 1-6.78.36h-12.08a45.82 45.82 0 0 1-8-.58 17.07 17.07 0 0 1-5.34-1.76 8.91 8.91 0 0 1-3.24-2.94 12.61 12.61 0 0 1-1.67-4.17 28.74 28.74 0 0 1-.6-5.4c-.05-2-.08-4.23-.08-6.67s0-4.66.08-6.67a29.39 29.39 0 0 1 .6-5.4 12.49 12.49 0 0 1 1.67-4.17 8.91 8.91 0 0 1 3.24-2.94 17.34 17.34 0 0 1 5.34-1.75 45.9 45.9 0 0 1 8-.58h12.07a56 56 0 0 1 6.78.36 24.21 24.21 0 0 1 5 1.1 11.39 11.39 0 0 1 3.47 1.87 8.74 8.74 0 0 1 2.19 2.66 11 11 0 0 1 1.15 3.47 25.71 25.71 0 0 1 .32 4.3h-5.17zM463.63 46.92a45.9 45.9 0 0 1 8 .58 17.07 17.07 0 0 1 5.34 1.75 8.88 8.88 0 0 1 3.23 2.94 12.81 12.81 0 0 1 1.65 4.17 29.5 29.5 0 0 1 .62 5.4q.09 3 .09 6.67t-.09 6.67a29.29 29.29 0 0 1-.62 5.4 12.9 12.9 0 0 1-1.65 4.17 8.8 8.8 0 0 1-3.23 2.94 17.34 17.34 0 0 1-5.34 1.75 45.9 45.9 0 0 1-8 .58h-15.54a45.82 45.82 0 0 1-8-.58 17.07 17.07 0 0 1-5.34-1.75 8.91 8.91 0 0 1-3.24-2.94 12.61 12.61 0 0 1-1.67-4.17 28.74 28.74 0 0 1-.6-5.4c-.05-2-.08-4.23-.08-6.67s0-4.66.08-6.67a29.39 29.39 0 0 1 .6-5.4 12.36 12.36 0 0 1 1.67-4.17 8.91 8.91 0 0 1 3.24-2.94 17.34 17.34 0 0 1 5.34-1.75 45.9 45.9 0 0 1 8-.58zm0 38.72c2.28 0 4.2-.07 5.77-.2a13.64 13.64 0 0 0 3.89-.82 5.27 5.27 0 0 0 2.37-1.77 7.67 7.67 0 0 0 1.21-3.07 27.93 27.93 0 0 0 .44-4.69c0-1.86.07-4.07.07-6.66s0-4.8-.07-6.66a27.93 27.93 0 0 0-.44-4.69 7.8 7.8 0 0 0-1.21-3.08 5.27 5.27 0 0 0-2.35-1.77 13.33 13.33 0 0 0-3.87-.82c-1.57-.14-3.5-.2-5.79-.2h-15.54c-2.29 0-4.23.07-5.79.2a13.64 13.64 0 0 0-3.89.82 5.22 5.22 0 0 0-2.37 1.77 7.67 7.67 0 0 0-1.21 3.07 28 28 0 0 0-.43 4.69v6.66s0 4.8.07 6.66a27.93 27.93 0 0 0 .44 4.69 8 8 0 0 0 1.2 3.07 5.16 5.16 0 0 0 2.35 1.77 13.56 13.56 0 0 0 3.89.82c1.57.14 3.5.2 5.79.2zM496.3 51.22v37.86h-5.16v-41.3h8.31l24.06 36.14 24.08-36.14h8.51v41.3h-5.16V51.79l-24.52 37.29h-5.22zM566.42 47.78h31a51.47 51.47 0 0 1 6.49.34 18.35 18.35 0 0 1 4.37 1A7 7 0 0 1 611 50.8a6.09 6.09 0 0 1 1.36 2.34 11.48 11.48 0 0 1 .5 3c0 1.11.07 2.34.07 3.68s0 2.69-.09 3.87a11 11 0 0 1-.62 3.21 6.62 6.62 0 0 1-1.67 2.53 8.74 8.74 0 0 1-3.25 1.81 26.26 26.26 0 0 1-5.35 1.1 70.94 70.94 0 0 1-8 .38H571.6v16.36h-5.16v-41.3zm5.17 20.65h22.34c2.29 0 4.23 0 5.79-.12a26.67 26.67 0 0 0 3.89-.44A6.62 6.62 0 0 0 606 67a3.37 3.37 0 0 0 1.22-1.56 7.35 7.35 0 0 0 .46-2.33c0-.9.07-2 .07-3.24s0-2.17-.07-3a6 6 0 0 0-.46-2.12 3.1 3.1 0 0 0-1.22-1.42 7.1 7.1 0 0 0-2.37-.79 26.52 26.52 0 0 0-3.89-.36c-1.57 0-3.5-.08-5.79-.08h-22.36zM654.49 79.62h-32.31l-5.39 9.46h-6l23.56-41.3h7.41l23.48 41.3h-5.42zM652 75.31l-13.63-24.12-13.73 24.12zM673.53 89.08h-5.16v-41.3h9.06l37.86 36.14V47.78h5.16v41.3h-6.88l-40-37zM724.64 47.78h6.88L750.45 68l18.93-20.21h6.88L753 71.87v17.21h-5.16V71.87z"/></g></svg>