<svg xmlns="http://www.w3.org/2000/svg" viewBox="0 0 250 250" enable-background="new 0 0 250 250"><g fill="#0033A0"><path d="M208.67 109.67c0 46.32-37.55 83.88-83.88 83.88S40.91 156 40.91 109.67s37.55-83.88 83.88-83.88 83.88 37.55 83.88 83.88zm-83.92-79.59c-43.88 0-79.46 35.58-79.46 79.46S80.87 189 124.75 189s79.46-35.58 79.46-79.46-35.57-79.46-79.46-79.46zM123.13 12.34h3.08v12.22h-3.08zM209.85 108.26h12.07v3h-12.07zM123.19 194.94h3.02v12.04h-3.02zM27.42 108.26h12.05v3.03H27.42zM114.18 38.3v53.06H99.64l14.02 19.04H99.64l-16.7-18.96H67.1c-1.27 4.07-3.12 14.8-2.68 18.96H52.73c-.77-30.86 21.38-65.86 61.45-72.1zM72.46 79.46h30.13V53.32C90.94 57.66 77.4 69.5 72.46 79.46zM124.3 80.44h2.22v9.13c-1.01-.49-2.67.04-2.67 1.2s1.65 2.13 2.67 1.72v1.36c-.94-.38-2.67.11-2.67 1.2s1.73 1.92 2.67 1.32v6.8h-2.22V97.8c-1.01-.08-2.59-1.16-2.59-2.67 0-1.09.49-1.88 1.13-2.04-.83-.45-1.13-1.05-1.13-2.17 0-1.35 1.2-3.01 2.63-3.04l-.04-7.44zM187.06 73.74l-2.48 7.43c1.62.65 7.22 4.58 8.77 6.61 1.44 2.98 3.97 16.5 3.2 22.62h-61.82V38.3c24.88 3.14 44.7 20.68 52.33 35.44zm-41.5 13.1v13.37h38.81c-.77-4.28-3.51-10.99-10.17-13.37h-28.64zm0-33.8v23.02h26.68V72.5c-5.21-7.38-18.26-17.29-26.68-19.46zM191.85 135.55c-2.84 8.57-12.96 23.22-20.86 29.16h-16.67v-29.16h37.53zm-28.29 9.19v10.6h7.16c2.47-2.48 6.95-8.3 7.63-10.6h-14.79zM146.77 120.55v16.52h-12.04v-6.11H68.18c11.04 29.46 45 47.29 78.59 34.94v12.21c-42.77 14.42-86.45-14.79-93.11-57.57h93.11z"/></g><g fill="#0033A0"><path d="M21.98 237.3h-2.14v-3.21c0-.52-.01-.97-.03-1.34-.02-.38-.08-.7-.19-.96-.11-.27-.28-.48-.51-.65-.23-.16-.56-.29-.98-.38-.42-.09-.96-.15-1.61-.18-.65-.03-1.45-.05-2.4-.05h-9.6v6.77H2.38v-17.11h12.11c1.31 0 2.41.05 3.3.14.89.09 1.63.23 2.22.42.58.19 1.03.42 1.35.69.32.27.55.6.69.97s.23.79.26 1.25c.03.46.04.97.04 1.53 0 .71-.05 1.34-.15 1.88-.1.54-.27 1-.51 1.38-.24.38-.55.68-.95.91-.39.23-.89.38-1.48.47.59.09 1.07.25 1.43.47.36.22.63.51.82.87.19.36.32.78.38 1.27s.09 1.05.09 1.67v3.19zm-17.46-8.55h9.97c.95 0 1.75-.02 2.4-.05.65-.03 1.19-.09 1.61-.18.42-.09.75-.22.98-.38.23-.16.4-.38.51-.65.11-.27.17-.59.19-.96.02-.37.03-.82.03-1.34 0-.48-.01-.9-.03-1.25-.02-.35-.08-.64-.19-.88s-.28-.43-.51-.57c-.23-.14-.56-.25-.98-.33-.42-.08-.96-.13-1.61-.15-.65-.02-1.45-.03-2.4-.03H4.52v6.77zM42.58 228.75h2.14v.71c0 1.14-.04 2.13-.12 2.96-.08.83-.24 1.54-.47 2.12-.24.58-.58 1.05-1.01 1.41-.44.36-1.01.64-1.73.84-.71.2-1.58.34-2.61.41-1.03.07-2.26.11-3.68.11-1.31 0-2.48-.01-3.51-.03-1.04-.02-1.95-.08-2.74-.18s-1.47-.27-2.03-.5c-.56-.23-1.02-.56-1.38-.98s-.62-.96-.78-1.61c-.16-.65-.25-1.45-.25-2.4 0-.71.08-1.33.24-1.85.16-.52.37-.97.62-1.34.25-.37.53-.67.84-.9.3-.23.6-.41.89-.55.29-.13.55-.22.8-.27.24-.05.42-.07.54-.07-.27-.18-.51-.36-.73-.55-.22-.19-.41-.39-.56-.61-.16-.22-.28-.47-.36-.75-.09-.27-.13-.59-.13-.95 0-.71.12-1.31.35-1.78.23-.47.55-.85.95-1.14.4-.29.86-.51 1.38-.65.52-.14 1.07-.24 1.65-.29s1.17-.08 1.77-.07c.6 0 1.18.01 1.74.01 1.19 0 2.23.02 3.11.05.89.03 1.65.11 2.28.22.63.11 1.15.27 1.56.49.41.22.73.51.97.88s.4.83.5 1.38c.09.55.14 1.2.14 1.98H40.8c0-.53-.03-.99-.08-1.35-.05-.37-.16-.67-.32-.91s-.38-.42-.67-.55-.67-.22-1.15-.28c-.48-.06-1.06-.09-1.74-.11-.69-.01-1.51-.02-2.46-.02-1.07 0-1.97.01-2.7.03-.73.02-1.31.1-1.76.23s-.76.35-.96.63c-.19.29-.29.7-.29 1.24 0 .19.03.38.09.56.06.18.16.36.3.54.14.18.32.35.55.52.23.17.51.34.85.51l18.18 9.27-.71 1.78-17.82-8.92c-.53 0-1.02.07-1.46.2-.44.13-.81.34-1.12.63-.31.29-.55.66-.72 1.11-.17.45-.26 1-.26 1.64 0 .59.05 1.1.14 1.5.09.41.26.74.5 1.01.24.26.56.47.97.61.41.14.93.25 1.56.31.63.07 1.39.11 2.28.12.88.01 1.92.02 3.11.02.95 0 1.79-.01 2.53-.02.74-.01 1.38-.05 1.94-.11.55-.06 1.02-.17 1.4-.31.38-.14.69-.34.93-.61.24-.26.41-.6.52-1.01.11-.41.16-.91.16-1.51v-2.85zM50.71 237.3v-17.11h14.27c1.07 0 1.93.09 2.58.26.65.17 1.16.43 1.51.77.35.34.59.76.71 1.26.12.51.18 1.08.18 1.74 0 .48-.04.89-.12 1.26-.08.36-.19.68-.32.95s-.29.49-.46.67c-.17.18-.35.33-.52.45-.42.28-.89.44-1.43.48.67.04 1.26.2 1.78.49.22.13.44.28.65.47.21.19.4.42.57.7.17.28.3.6.41.98.1.37.16.81.16 1.3 0 .59-.03 1.14-.08 1.63-.06.49-.17.94-.34 1.33-.17.39-.42.74-.74 1.04-.32.3-.74.54-1.28.74-.53.2-1.18.34-1.95.44-.77.1-1.69.14-2.76.14H50.71zm12.11-9.98c.73 0 1.35-.01 1.88-.04.53-.03.98-.09 1.35-.17.37-.08.67-.19.9-.34.23-.14.41-.33.54-.56.13-.23.22-.51.26-.83.04-.32.07-.71.07-1.15 0-.48-.05-.86-.16-1.16-.1-.3-.29-.53-.56-.69-.27-.16-.63-.27-1.09-.32-.46-.06-1.04-.08-1.75-.08H52.85v5.35h9.97zm0 8.2c.83 0 1.55-.01 2.16-.04.61-.03 1.12-.08 1.55-.17.42-.09.76-.21 1.02-.37s.46-.37.61-.63c.14-.26.24-.58.3-.96.05-.38.08-.84.08-1.37 0-.42-.03-.78-.08-1.09-.05-.31-.15-.57-.3-.78-.14-.21-.35-.38-.61-.51s-.6-.23-1.02-.31c-.42-.07-.94-.12-1.55-.15-.61-.03-1.33-.04-2.16-.04h-9.97v6.42h9.97zM98.86 225.54c0-.89-.1-1.6-.29-2.12-.19-.52-.51-.91-.96-1.18s-1.03-.44-1.75-.51-1.62-.11-2.69-.11h-5c-.95 0-1.75.03-2.4.08-.65.06-1.19.17-1.61.34-.42.17-.75.42-.98.74-.23.32-.4.74-.5 1.27-.1.53-.16 1.18-.18 1.94-.01.77-.02 1.69-.02 2.76s.01 1.99.03 2.76c.02.77.08 1.42.18 1.94.1.53.27.95.5 1.27.23.32.55.56.97.74.42.17.96.28 1.61.34.65.06 1.45.08 2.4.08h5c.83 0 1.55-.02 2.15-.07.6-.04 1.11-.13 1.54-.25.42-.12.76-.28 1.02-.49.26-.21.46-.47.61-.79.14-.32.24-.69.3-1.14.05-.44.08-.96.08-1.55H101c0 .71-.04 1.36-.13 1.93-.09.58-.25 1.09-.47 1.54-.23.45-.53.84-.91 1.16-.38.33-.86.6-1.44.81-.58.21-1.27.37-2.07.47-.8.1-1.74.15-2.81.15h-5c-1.31 0-2.41-.08-3.3-.24-.89-.16-1.63-.4-2.21-.72-.58-.32-1.03-.73-1.34-1.22-.32-.49-.55-1.07-.69-1.73s-.23-1.41-.25-2.24c-.02-.83-.03-1.75-.03-2.76s.01-1.93.03-2.76c.02-.83.11-1.58.25-2.24s.37-1.24.69-1.73c.32-.49.76-.9 1.34-1.22.58-.32 1.32-.56 2.21-.72.89-.16 2-.24 3.3-.24h5c1.07 0 2 .05 2.81.15.8.1 1.49.25 2.07.46.58.2 1.06.46 1.44.77.38.31.68.68.91 1.1.23.42.38.9.47 1.44.09.53.13 1.13.13 1.78h-2.14zM118.11 219.84c1.31 0 2.41.08 3.3.24.89.16 1.63.4 2.21.72.58.32 1.02.73 1.34 1.22.31.49.54 1.07.68 1.73s.23 1.41.26 2.24c.03.83.04 1.75.04 2.76s-.01 1.93-.04 2.76c-.03.83-.11 1.58-.26 2.24s-.37 1.24-.68 1.73c-.31.49-.76.9-1.34 1.22-.58.32-1.32.56-2.21.72-.89.16-2 .24-3.3.24h-6.44c-1.31 0-2.41-.08-3.3-.24-.89-.16-1.63-.4-2.21-.72-.58-.32-1.03-.73-1.34-1.22-.32-.49-.55-1.07-.69-1.73s-.23-1.41-.25-2.24c-.02-.83-.03-1.75-.03-2.76s.01-1.93.03-2.76c.02-.83.11-1.58.25-2.24s.37-1.24.69-1.73c.32-.49.76-.9 1.34-1.22.58-.32 1.32-.56 2.21-.72.89-.16 2-.24 3.3-.24h6.44zm0 16.04c.94 0 1.74-.03 2.39-.08.65-.06 1.19-.17 1.61-.34.42-.17.75-.42.98-.74.23-.32.4-.74.5-1.27.1-.53.17-1.18.18-1.94.02-.77.03-1.69.03-2.76s-.01-1.99-.03-2.76c-.02-.77-.08-1.42-.18-1.94-.1-.53-.27-.95-.5-1.27-.23-.32-.56-.56-.97-.74-.42-.17-.95-.28-1.6-.34-.65-.06-1.45-.08-2.4-.08h-6.44c-.95 0-1.75.03-2.4.08-.65.06-1.19.17-1.61.34-.42.17-.75.42-.98.74-.23.32-.4.74-.5 1.27-.1.53-.16 1.18-.18 1.94-.01.77-.02 1.69-.02 2.76s.01 1.99.03 2.76c.02.77.08 1.42.18 1.94.1.53.27.95.5 1.27.23.32.55.56.97.74.42.17.96.28 1.61.34.65.06 1.45.08 2.4.08h6.43zM131.65 221.62v15.68h-2.14v-17.11h3.44l9.97 14.97 9.98-14.97h3.53v17.11h-2.14v-15.45l-10.16 15.45h-2.16l-10.32-15.68zM160.69 220.19h12.85c1.06 0 1.96.05 2.69.14.73.09 1.33.23 1.81.42.48.19.84.42 1.1.69.26.27.44.6.56.97.12.37.19.79.21 1.25.02.46.03.97.03 1.53 0 .58-.01 1.11-.04 1.6s-.11.93-.26 1.33c-.15.4-.38.75-.69 1.05-.32.3-.77.55-1.35.75-.58.2-1.32.35-2.22.46-.89.1-2 .16-3.3.16h-9.26v6.77h-2.14v-17.12zm2.14 8.56h9.26c.95 0 1.75-.02 2.4-.05.65-.03 1.19-.09 1.61-.18.42-.09.75-.22.98-.38.23-.16.4-.38.51-.65.11-.27.17-.59.19-.96.02-.37.03-.82.03-1.34 0-.48-.01-.9-.03-1.25-.02-.35-.08-.64-.19-.88s-.28-.43-.51-.57c-.23-.14-.56-.25-.98-.33-.42-.08-.96-.13-1.61-.15-.65-.02-1.45-.03-2.4-.03h-9.26v6.77zM197.18 233.38H183.8l-2.23 3.92h-2.48l9.76-17.11h3.07l9.73 17.11h-2.24l-2.23-3.92zm-1.02-1.78l-5.67-9.99-5.69 9.99h11.36zM205.06 237.3h-2.14v-17.11h3.75l15.68 14.97v-14.97h2.14v17.11h-2.85l-16.58-15.33v15.33zM226.23 220.19h2.85l7.84 8.37 7.84-8.37h2.85l-9.62 9.98v7.13h-2.14v-7.13l-9.62-9.98z"/></g></svg>